<?xml version="1.0" encoding="UTF-8"?>
<svg xmlns="http://www.w3.org/2000/svg" width="1656" height="648" viewBox="0 0 1656 648" xml:space="preserve"><rect width="1656" height="648" fill="#FFFFFF"/><g data-component-id="page"><rect x="0" y="0" width="1656" height="648" fill="transparent" stroke="none" stroke-width="0" stroke-miterlimit="10"/><g data-component-id="tls_provider"><rect x="56" y="0" width="1536" height="296" fill="transparent" stroke="#000000" stroke-width="1" stroke-miterlimit="10"/><g data-component-id="tls_provider__heading"><rect x="64" y="8" width="1520" height="48" fill="transparent" stroke="none" stroke-width="0" stroke-miterlimit="10"/><text font-family="Ubuntu Sans" data-dg-text-role="heading" data-dg-text-block-index="0"><tspan x="64" y="24.92" font-size="18" font-weight="700" fill="#000000">TLS Certificate Provider</tspan></text></g><g data-component-id="tls_provider__body"><rect x="64" y="72" width="1520" height="216" fill="transparent" stroke="none" stroke-width="0" stroke-miterlimit="10"/><g data-component-id="vault_charm"><rect x="736" y="72" width="176" height="64" fill="transparent" stroke="#000000" stroke-width="1" stroke-miterlimit="10"/><text font-family="Ubuntu Sans" data-dg-text-role="label" data-dg-text-block-index="0"><tspan x="744" y="96.92" font-size="18" font-weight="400" fill="#000000">vault</tspan><tspan x="744" y="120.92" font-size="18" font-weight="400" fill="#000000">charm</tspan></text></g><g data-component-id="manual_tls_certificates"><rect x="672" y="224" width="304" height="64" fill="transparent" stroke="#000000" stroke-width="1" stroke-miterlimit="10"/><text font-family="Ubuntu Sans" data-dg-text-role="label" data-dg-text-block-index="0"><tspan x="680" y="248.92" font-size="18" font-weight="400" fill="#000000">manual-tls-certificates</tspan><tspan x="680" y="272.92" font-size="18" font-weight="400" fill="#000000">charm</tspan></text></g></g></g><g data-component-id="openstack_services"><rect x="0" y="472" width="320" height="174" fill="#F3F3F3" stroke="#F3F3F3" stroke-width="1" stroke-miterlimit="10"/><g data-component-id="openstack_services__heading"><rect x="8" y="480" width="304" height="48" fill="transparent" stroke="none" stroke-width="0" stroke-miterlimit="10"/><text font-family="Ubuntu Sans" data-dg-text-role="heading" data-dg-text-block-index="0"><tspan x="8" y="496.92" font-size="18" font-weight="700" fill="#000000">OpenStack Services</tspan></text></g><g data-component-id="openstack_services__body"><rect x="8" y="544" width="304" height="94" fill="transparent" stroke="none" stroke-width="0" stroke-miterlimit="10"/><g data-component-id="octavia_k8s"><rect x="8" y="560" width="304" height="64" fill="transparent" stroke="#000000" stroke-width="1" stroke-miterlimit="10"/><text font-family="Ubuntu Sans" data-dg-text-role="label" data-dg-text-block-index="0"><tspan x="16" y="584.92" font-size="18" font-weight="400" fill="#000000">octavia-k8s</tspan><tspan x="16" y="608.92" font-size="18" font-weight="400" fill="#000000">Load Balancer Service</tspan></text></g></g></g><g data-component-id="load_balancers"><rect x="344" y="472" width="1312" height="174" fill="#F3F3F3" stroke="#F3F3F3" stroke-width="1" stroke-miterlimit="10"/><g data-component-id="load_balancers__heading"><rect x="352" y="480" width="1296" height="48" fill="transparent" stroke="none" stroke-width="0" stroke-miterlimit="10"/><text font-family="Ubuntu Sans" data-dg-text-role="heading" data-dg-text-block-index="0"><tspan x="352" y="496.92" font-size="18" font-weight="700" fill="#000000">LoadBalancers</tspan></text></g><g data-component-id="load_balancers__body"><rect x="352" y="544" width="1296" height="94" fill="transparent" stroke="none" stroke-width="0" stroke-miterlimit="10"/><g data-component-id="traefik_public"><rect x="616" y="576" width="240" height="64" fill="transparent" stroke="#000000" stroke-width="1" stroke-miterlimit="10"/><text font-family="Ubuntu Sans" data-dg-text-role="label" data-dg-text-block-index="0"><tspan x="624" y="600.92" font-size="18" font-weight="400" fill="#000000">traefik-public</tspan><tspan x="624" y="624.92" font-size="18" font-weight="400" fill="#000000">Public Endpoint</tspan></text></g><g data-component-id="traefik_internal"><rect x="880" y="576" width="240" height="64" fill="transparent" stroke="#000000" stroke-width="1" stroke-miterlimit="10"/><text font-family="Ubuntu Sans" data-dg-text-role="label" data-dg-text-block-index="0"><tspan x="888" y="600.92" font-size="18" font-weight="400" fill="#000000">traefik</tspan><tspan x="888" y="624.92" font-size="18" font-weight="400" fill="#000000">Internal Endpoint</tspan></text></g><g data-component-id="traefik_rgw"><rect x="1144" y="576" width="240" height="64" fill="transparent" stroke="#000000" stroke-width="1" stroke-miterlimit="10"/><text font-family="Ubuntu Sans" data-dg-text-role="label" data-dg-text-block-index="0"><tspan x="1152" y="600.92" font-size="18" font-weight="400" fill="#000000">traefik-rgw</tspan><tspan x="1152" y="624.92" font-size="18" font-weight="400" fill="#000000">Ceph RGW Endpoint</tspan></text></g></g></g></g><g data-dg-arrow="true" data-component-id="edge-0"><line x1="824" y1="136" x2="824" y2="213.16" fill="none" stroke="#E95420" stroke-width="1" stroke-miterlimit="10"/><polygon points="821.09,213.16 824,224 826.91,213.16" fill="#E95420"/><rect x="752" y="160" width="152" height="40" fill="transparent" stroke="none"/><text font-family="Ubuntu Sans"><tspan x="752" y="184.92" font-size="18" font-weight="400" fill="#666666">tls-certificates-pki</tspan></text></g><g data-dg-arrow="true" data-component-id="edge-1"><line x1="824" y1="288" x2="824" y2="304" fill="none" stroke="#E95420" stroke-width="1" stroke-miterlimit="10"/><line x1="824" y1="304" x2="824" y2="312" fill="none" stroke="#E95420" stroke-width="1" stroke-miterlimit="10"/><line x1="824" y1="312" x2="488" y2="312" fill="none" stroke="#E95420" stroke-width="1" stroke-miterlimit="10"/><line x1="488" y1="312" x2="488" y2="424" fill="none" stroke="#E95420" stroke-width="1" stroke-miterlimit="10"/><line x1="488" y1="424" x2="160" y2="424" fill="none" stroke="#E95420" stroke-width="1" stroke-miterlimit="10"/><line x1="160" y1="424" x2="160" y2="464" fill="none" stroke="#E95420" stroke-width="1" stroke-miterlimit="10"/><line x1="160" y1="464" x2="160" y2="549.16" fill="none" stroke="#E95420" stroke-width="1" stroke-miterlimit="10"/><polygon points="157.09,549.16 160,560 162.91,549.16" fill="#E95420"/><rect x="392" y="328" width="200" height="64" fill="transparent" stroke="none"/><text font-family="Ubuntu Sans"><tspan x="392" y="352.92" font-size="18" font-weight="400" fill="#666666">certificates</tspan><tspan x="392" y="376.92" font-size="18" font-weight="400" fill="#666666">interface: tls-certificates</tspan></text></g><g data-dg-arrow="true" data-component-id="edge-2"><line x1="824" y1="288" x2="824" y2="304" fill="none" stroke="#E95420" stroke-width="1" stroke-miterlimit="10"/><line x1="824" y1="304" x2="824" y2="312" fill="none" stroke="#E95420" stroke-width="1" stroke-miterlimit="10"/><line x1="824" y1="312" x2="264" y2="312" fill="none" stroke="#E95420" stroke-width="1" stroke-miterlimit="10"/><line x1="264" y1="312" x2="264" y2="400" fill="none" stroke="#E95420" stroke-width="1" stroke-miterlimit="10"/><line x1="264" y1="400" x2="80" y2="400" fill="none" stroke="#E95420" stroke-width="1" stroke-miterlimit="10"/><line x1="80" y1="400" x2="80" y2="464" fill="none" stroke="#E95420" stroke-width="1" stroke-miterlimit="10"/><line x1="80" y1="464" x2="80" y2="549.16" fill="none" stroke="#E95420" stroke-width="1" stroke-miterlimit="10"/><polygon points="77.09,549.16 80,560 82.91,549.16" fill="#E95420"/><rect x="168" y="328" width="200" height="64" fill="transparent" stroke="none"/><text font-family="Ubuntu Sans"><tspan x="168" y="352.92" font-size="18" font-weight="400" fill="#666666">amphora-issuing-ca</tspan><tspan x="168" y="376.92" font-size="18" font-weight="400" fill="#666666">interface: tls-certificates</tspan></text></g><g data-dg-arrow="true" data-component-id="edge-3"><line x1="824" y1="288" x2="824" y2="304" fill="none" stroke="#E95420" stroke-width="1" stroke-miterlimit="10"/><line x1="824" y1="304" x2="824" y2="312" fill="none" stroke="#E95420" stroke-width="1" stroke-miterlimit="10"/><line x1="824" y1="312" x2="712" y2="312" fill="none" stroke="#E95420" stroke-width="1" stroke-miterlimit="10"/><line x1="712" y1="312" x2="712" y2="448" fill="none" stroke="#E95420" stroke-width="1" stroke-miterlimit="10"/><line x1="712" y1="448" x2="232" y2="448" fill="none" stroke="#E95420" stroke-width="1" stroke-miterlimit="10"/><line x1="232" y1="448" x2="232" y2="464" fill="none" stroke="#E95420" stroke-width="1" stroke-miterlimit="10"/><line x1="232" y1="464" x2="232" y2="549.16" fill="none" stroke="#E95420" stroke-width="1" stroke-miterlimit="10"/><polygon points="229.09,549.16 232,560 234.91,549.16" fill="#E95420"/><rect x="616" y="328" width="200" height="64" fill="transparent" stroke="none"/><text font-family="Ubuntu Sans"><tspan x="616" y="352.92" font-size="18" font-weight="400" fill="#666666">amphora-controller-cert</tspan><tspan x="616" y="376.92" font-size="18" font-weight="400" fill="#666666">interface: tls-certificates</tspan></text></g><g data-dg-arrow="true" data-component-id="edge-4"><line x1="824" y1="288" x2="824" y2="304" fill="none" stroke="#E95420" stroke-width="1" stroke-miterlimit="10"/><line x1="824" y1="304" x2="824" y2="312" fill="none" stroke="#E95420" stroke-width="1" stroke-miterlimit="10"/><line x1="824" y1="312" x2="936" y2="312" fill="none" stroke="#E95420" stroke-width="1" stroke-miterlimit="10"/><line x1="936" y1="312" x2="936" y2="400" fill="none" stroke="#E95420" stroke-width="1" stroke-miterlimit="10"/><line x1="936" y1="400" x2="984" y2="400" fill="none" stroke="#E95420" stroke-width="1" stroke-miterlimit="10"/><line x1="984" y1="400" x2="984" y2="464" fill="none" stroke="#E95420" stroke-width="1" stroke-miterlimit="10"/><line x1="984" y1="464" x2="984" y2="560" fill="none" stroke="#E95420" stroke-width="1" stroke-miterlimit="10"/><line x1="984" y1="560" x2="736" y2="560" fill="none" stroke="#E95420" stroke-width="1" stroke-miterlimit="10"/><line x1="736" y1="560" x2="736" y2="565.16" fill="none" stroke="#E95420" stroke-width="1" stroke-miterlimit="10"/><polygon points="733.09,565.16 736,576 738.91,565.16" fill="#E95420"/><rect x="840" y="328" width="200" height="64" fill="transparent" stroke="none"/><text font-family="Ubuntu Sans"><tspan x="840" y="352.92" font-size="18" font-weight="400" fill="#666666">certificates</tspan><tspan x="840" y="376.92" font-size="18" font-weight="400" fill="#666666">interface: tls-certificates</tspan></text></g><g data-dg-arrow="true" data-component-id="edge-5"><line x1="824" y1="288" x2="824" y2="304" fill="none" stroke="#E95420" stroke-width="1" stroke-miterlimit="10"/><line x1="824" y1="304" x2="824" y2="312" fill="none" stroke="#E95420" stroke-width="1" stroke-miterlimit="10"/><line x1="824" y1="312" x2="1160" y2="312" fill="none" stroke="#E95420" stroke-width="1" stroke-miterlimit="10"/><line x1="1160" y1="312" x2="1160" y2="400" fill="none" stroke="#E95420" stroke-width="1" stroke-miterlimit="10"/><line x1="1160" y1="400" x2="1000" y2="400" fill="none" stroke="#E95420" stroke-width="1" stroke-miterlimit="10"/><line x1="1000" y1="400" x2="1000" y2="464" fill="none" stroke="#E95420" stroke-width="1" stroke-miterlimit="10"/><line x1="1000" y1="464" x2="1000" y2="565.16" fill="none" stroke="#E95420" stroke-width="1" stroke-miterlimit="10"/><polygon points="997.09,565.16 1000,576 1002.91,565.16" fill="#E95420"/><rect x="1064" y="328" width="200" height="64" fill="transparent" stroke="none"/><text font-family="Ubuntu Sans"><tspan x="1064" y="352.92" font-size="18" font-weight="400" fill="#666666">certificates</tspan><tspan x="1064" y="376.92" font-size="18" font-weight="400" fill="#666666">interface: tls-certificates</tspan></text></g><g data-dg-arrow="true" data-component-id="edge-6"><line x1="824" y1="288" x2="824" y2="304" fill="none" stroke="#E95420" stroke-width="1" stroke-miterlimit="10"/><line x1="824" y1="304" x2="824" y2="312" fill="none" stroke="#E95420" stroke-width="1" stroke-miterlimit="10"/><line x1="824" y1="312" x2="1384" y2="312" fill="none" stroke="#E95420" stroke-width="1" stroke-miterlimit="10"/><line x1="1384" y1="312" x2="1384" y2="424" fill="none" stroke="#E95420" stroke-width="1" stroke-miterlimit="10"/><line x1="1384" y1="424" x2="1008" y2="424" fill="none" stroke="#E95420" stroke-width="1" stroke-miterlimit="10"/><line x1="1008" y1="424" x2="1008" y2="464" fill="none" stroke="#E95420" stroke-width="1" stroke-miterlimit="10"/><line x1="1008" y1="464" x2="1008" y2="560" fill="none" stroke="#E95420" stroke-width="1" stroke-miterlimit="10"/><line x1="1008" y1="560" x2="1264" y2="560" fill="none" stroke="#E95420" stroke-width="1" stroke-miterlimit="10"/><line x1="1264" y1="560" x2="1264" y2="565.16" fill="none" stroke="#E95420" stroke-width="1" stroke-miterlimit="10"/><polygon points="1261.09,565.16 1264,576 1266.91,565.16" fill="#E95420"/><rect x="1288" y="328" width="200" height="64" fill="transparent" stroke="none"/><text font-family="Ubuntu Sans"><tspan x="1288" y="352.92" font-size="18" font-weight="400" fill="#666666">certificates</tspan><tspan x="1288" y="376.92" font-size="18" font-weight="400" fill="#666666">interface: tls-certificates</tspan></text></g></svg>
