<?xml version="1.0" encoding="UTF-8"?>
<svg xmlns="http://www.w3.org/2000/svg" width="1656" height="664" viewBox="0 0 1656 664" xml:space="preserve"><rect width="1656" height="664" fill="#FFFFFF"/><g data-component-id="page"><rect x="0" y="0" width="1656" height="664" fill="transparent" stroke="none" stroke-width="0" stroke-miterlimit="10"/><g data-component-id="tls_provider"><rect x="56" y="0" width="1536" height="308" fill="transparent" stroke="#000000" stroke-width="1" stroke-miterlimit="10"/><g data-component-id="tls_provider__heading"><rect x="64" y="8" width="1520" height="48" fill="transparent" stroke="none" stroke-width="0" stroke-miterlimit="10"/><text font-family="Ubuntu Sans" data-dg-text-role="heading" data-dg-text-block-index="0"><tspan x="64" y="24.92" font-size="18" font-weight="700" fill="#000000">TLS Certificate Provider</tspan></text></g><g data-component-id="tls_provider__body"><rect x="64" y="72" width="1520" height="228" fill="transparent" stroke="none" stroke-width="0" stroke-miterlimit="10"/><g data-component-id="vault_charm"><rect x="736" y="72" width="176" height="64" fill="transparent" stroke="#000000" stroke-width="1" stroke-miterlimit="10"/><text font-family="Ubuntu Sans" data-dg-text-role="label" data-dg-text-block-index="0"><tspan x="744" y="96.92" font-size="18" font-weight="400" fill="#000000">vault</tspan><tspan x="744" y="120.92" font-size="18" font-weight="400" fill="#000000">charm</tspan></text></g><g data-component-id="manual_tls_certificates"><rect x="672" y="240" width="304" height="64" fill="transparent" stroke="#000000" stroke-width="1" stroke-miterlimit="10"/><text font-family="Ubuntu Sans" data-dg-text-role="label" data-dg-text-block-index="0"><tspan x="680" y="264.92" font-size="18" font-weight="400" fill="#000000">manual-tls-certificates</tspan><tspan x="680" y="288.92" font-size="18" font-weight="400" fill="#000000">charm</tspan></text></g></g></g><g data-component-id="openstack_services"><rect x="0" y="488" width="320" height="174" fill="#F3F3F3" stroke="#F3F3F3" stroke-width="1" stroke-miterlimit="10"/><g data-component-id="openstack_services__heading"><rect x="8" y="496" width="304" height="48" fill="transparent" stroke="none" stroke-width="0" stroke-miterlimit="10"/><text font-family="Ubuntu Sans" data-dg-text-role="heading" data-dg-text-block-index="0"><tspan x="8" y="512.92" font-size="18" font-weight="700" fill="#000000">OpenStack Services</tspan></text></g><g data-component-id="openstack_services__body"><rect x="8" y="560" width="304" height="94" fill="transparent" stroke="none" stroke-width="0" stroke-miterlimit="10"/><g data-component-id="octavia_k8s"><rect x="8" y="576" width="304" height="64" fill="transparent" stroke="#000000" stroke-width="1" stroke-miterlimit="10"/><text font-family="Ubuntu Sans" data-dg-text-role="label" data-dg-text-block-index="0"><tspan x="16" y="600.92" font-size="18" font-weight="400" fill="#000000">octavia-k8s</tspan><tspan x="16" y="624.92" font-size="18" font-weight="400" fill="#000000">Load Balancer Service</tspan></text></g></g></g><g data-component-id="load_balancers"><rect x="344" y="488" width="1312" height="174" fill="#F3F3F3" stroke="#F3F3F3" stroke-width="1" stroke-miterlimit="10"/><g data-component-id="load_balancers__heading"><rect x="352" y="496" width="1296" height="48" fill="transparent" stroke="none" stroke-width="0" stroke-miterlimit="10"/><text font-family="Ubuntu Sans" data-dg-text-role="heading" data-dg-text-block-index="0"><tspan x="352" y="512.92" font-size="18" font-weight="700" fill="#000000">LoadBalancers</tspan></text></g><g data-component-id="load_balancers__body"><rect x="352" y="560" width="1296" height="94" fill="transparent" stroke="none" stroke-width="0" stroke-miterlimit="10"/><g data-component-id="traefik_public"><rect x="616" y="592" width="240" height="64" fill="transparent" stroke="#000000" stroke-width="1" stroke-miterlimit="10"/><text font-family="Ubuntu Sans" data-dg-text-role="label" data-dg-text-block-index="0"><tspan x="624" y="616.92" font-size="18" font-weight="400" fill="#000000">traefik-public</tspan><tspan x="624" y="640.92" font-size="18" font-weight="400" fill="#000000">Public Endpoint</tspan></text></g><g data-component-id="traefik_internal"><rect x="880" y="592" width="240" height="64" fill="transparent" stroke="#000000" stroke-width="1" stroke-miterlimit="10"/><text font-family="Ubuntu Sans" data-dg-text-role="label" data-dg-text-block-index="0"><tspan x="888" y="616.92" font-size="18" font-weight="400" fill="#000000">traefik</tspan><tspan x="888" y="640.92" font-size="18" font-weight="400" fill="#000000">Internal Endpoint</tspan></text></g><g data-component-id="traefik_rgw"><rect x="1144" y="592" width="240" height="64" fill="transparent" stroke="#000000" stroke-width="1" stroke-miterlimit="10"/><text font-family="Ubuntu Sans" data-dg-text-role="label" data-dg-text-block-index="0"><tspan x="1152" y="616.92" font-size="18" font-weight="400" fill="#000000">traefik-rgw</tspan><tspan x="1152" y="640.92" font-size="18" font-weight="400" fill="#000000">Ceph RGW Endpoint</tspan></text></g></g></g></g><g data-dg-arrow="true" data-component-id="edge-0"><line x1="824" y1="136" x2="824" y2="152" fill="none" stroke="#E95420" stroke-width="1" stroke-miterlimit="10"/><line x1="824" y1="152" x2="904" y2="152" fill="none" stroke="#E95420" stroke-width="1" stroke-miterlimit="10"/><line x1="904" y1="152" x2="904" y2="224" fill="none" stroke="#E95420" stroke-width="1" stroke-miterlimit="10"/><line x1="904" y1="224" x2="824" y2="224" fill="none" stroke="#E95420" stroke-width="1" stroke-miterlimit="10"/><line x1="824" y1="224" x2="824" y2="229.16" fill="none" stroke="#E95420" stroke-width="1" stroke-miterlimit="10"/><polygon points="821.09,229.16 824,240 826.91,229.16" fill="#E95420"/><rect x="744" y="168" width="152" height="40" fill="transparent" stroke="none"/><text font-family="Ubuntu Sans"><tspan x="744" y="192.92" font-size="18" font-weight="400" fill="#666666">tls-certificates-pki</tspan></text></g><g data-dg-arrow="true" data-component-id="edge-1"><line x1="824" y1="304" x2="824" y2="320" fill="none" stroke="#E95420" stroke-width="1" stroke-miterlimit="10"/><line x1="824" y1="320" x2="824" y2="328" fill="none" stroke="#E95420" stroke-width="1" stroke-miterlimit="10"/><line x1="824" y1="328" x2="576" y2="328" fill="none" stroke="#E95420" stroke-width="1" stroke-miterlimit="10"/><line x1="576" y1="328" x2="576" y2="440" fill="none" stroke="#E95420" stroke-width="1" stroke-miterlimit="10"/><line x1="576" y1="440" x2="160" y2="440" fill="none" stroke="#E95420" stroke-width="1" stroke-miterlimit="10"/><line x1="160" y1="440" x2="160" y2="480" fill="none" stroke="#E95420" stroke-width="1" stroke-miterlimit="10"/><line x1="160" y1="480" x2="160" y2="565.16" fill="none" stroke="#E95420" stroke-width="1" stroke-miterlimit="10"/><polygon points="157.09,565.16 160,576 162.91,565.16" fill="#E95420"/><rect x="368" y="344" width="200" height="64" fill="transparent" stroke="none"/><text font-family="Ubuntu Sans"><tspan x="368" y="368.92" font-size="18" font-weight="400" fill="#666666">certificates</tspan><tspan x="368" y="392.92" font-size="18" font-weight="400" fill="#666666">interface: tls-certificates</tspan></text></g><g data-dg-arrow="true" data-component-id="edge-2"><line x1="824" y1="304" x2="824" y2="320" fill="none" stroke="#E95420" stroke-width="1" stroke-miterlimit="10"/><line x1="824" y1="320" x2="824" y2="328" fill="none" stroke="#E95420" stroke-width="1" stroke-miterlimit="10"/><line x1="824" y1="328" x2="344" y2="328" fill="none" stroke="#E95420" stroke-width="1" stroke-miterlimit="10"/><line x1="344" y1="328" x2="344" y2="416" fill="none" stroke="#E95420" stroke-width="1" stroke-miterlimit="10"/><line x1="344" y1="416" x2="80" y2="416" fill="none" stroke="#E95420" stroke-width="1" stroke-miterlimit="10"/><line x1="80" y1="416" x2="80" y2="480" fill="none" stroke="#E95420" stroke-width="1" stroke-miterlimit="10"/><line x1="80" y1="480" x2="82.66" y2="565.16" fill="none" stroke="#E95420" stroke-width="1" stroke-miterlimit="10"/><polygon points="79.76,565.26 83,576 85.57,565.07" fill="#E95420"/><rect x="136" y="344" width="200" height="64" fill="transparent" stroke="none"/><text font-family="Ubuntu Sans"><tspan x="136" y="368.92" font-size="18" font-weight="400" fill="#666666">amphora-issuing-ca</tspan><tspan x="136" y="392.92" font-size="18" font-weight="400" fill="#666666">interface: tls-certificates</tspan></text></g><g data-dg-arrow="true" data-component-id="edge-3"><line x1="824" y1="304" x2="824" y2="320" fill="none" stroke="#E95420" stroke-width="1" stroke-miterlimit="10"/><line x1="824" y1="320" x2="824" y2="328" fill="none" stroke="#E95420" stroke-width="1" stroke-miterlimit="10"/><line x1="824" y1="328" x2="808" y2="328" fill="none" stroke="#E95420" stroke-width="1" stroke-miterlimit="10"/><line x1="808" y1="328" x2="808" y2="464" fill="none" stroke="#E95420" stroke-width="1" stroke-miterlimit="10"/><line x1="808" y1="464" x2="232" y2="464" fill="none" stroke="#E95420" stroke-width="1" stroke-miterlimit="10"/><line x1="232" y1="464" x2="232" y2="480" fill="none" stroke="#E95420" stroke-width="1" stroke-miterlimit="10"/><line x1="232" y1="480" x2="234.66" y2="565.16" fill="none" stroke="#E95420" stroke-width="1" stroke-miterlimit="10"/><polygon points="231.76,565.26 235,576 237.57,565.07" fill="#E95420"/><rect x="600" y="344" width="200" height="64" fill="transparent" stroke="none"/><text font-family="Ubuntu Sans"><tspan x="600" y="368.92" font-size="18" font-weight="400" fill="#666666">amphora-controller-cert</tspan><tspan x="600" y="392.92" font-size="18" font-weight="400" fill="#666666">interface: tls-certificates</tspan></text></g><g data-dg-arrow="true" data-component-id="edge-4"><line x1="824" y1="304" x2="824" y2="320" fill="none" stroke="#E95420" stroke-width="1" stroke-miterlimit="10"/><line x1="824" y1="320" x2="824" y2="328" fill="none" stroke="#E95420" stroke-width="1" stroke-miterlimit="10"/><line x1="824" y1="328" x2="1048" y2="328" fill="none" stroke="#E95420" stroke-width="1" stroke-miterlimit="10"/><line x1="1048" y1="328" x2="1048" y2="416" fill="none" stroke="#E95420" stroke-width="1" stroke-miterlimit="10"/><line x1="1048" y1="416" x2="984" y2="416" fill="none" stroke="#E95420" stroke-width="1" stroke-miterlimit="10"/><line x1="984" y1="416" x2="984" y2="472" fill="none" stroke="#E95420" stroke-width="1" stroke-miterlimit="10"/><line x1="984" y1="472" x2="984" y2="568" fill="none" stroke="#E95420" stroke-width="1" stroke-miterlimit="10"/><line x1="984" y1="568" x2="736" y2="568" fill="none" stroke="#E95420" stroke-width="1" stroke-miterlimit="10"/><line x1="736" y1="568" x2="736" y2="581.16" fill="none" stroke="#E95420" stroke-width="1" stroke-miterlimit="10"/><polygon points="733.09,581.16 736,592 738.91,581.16" fill="#E95420"/><rect x="840" y="344" width="200" height="64" fill="transparent" stroke="none"/><text font-family="Ubuntu Sans"><tspan x="840" y="368.92" font-size="18" font-weight="400" fill="#666666">certificates</tspan><tspan x="840" y="392.92" font-size="18" font-weight="400" fill="#666666">interface: tls-certificates</tspan></text></g><g data-dg-arrow="true" data-component-id="edge-5"><line x1="824" y1="304" x2="824" y2="320" fill="none" stroke="#E95420" stroke-width="1" stroke-miterlimit="10"/><line x1="824" y1="320" x2="824" y2="328" fill="none" stroke="#E95420" stroke-width="1" stroke-miterlimit="10"/><line x1="824" y1="328" x2="1280" y2="328" fill="none" stroke="#E95420" stroke-width="1" stroke-miterlimit="10"/><line x1="1280" y1="328" x2="1280" y2="440" fill="none" stroke="#E95420" stroke-width="1" stroke-miterlimit="10"/><line x1="1280" y1="440" x2="1000" y2="440" fill="none" stroke="#E95420" stroke-width="1" stroke-miterlimit="10"/><line x1="1000" y1="440" x2="1000" y2="472" fill="none" stroke="#E95420" stroke-width="1" stroke-miterlimit="10"/><line x1="1000" y1="472" x2="1000" y2="581.16" fill="none" stroke="#E95420" stroke-width="1" stroke-miterlimit="10"/><polygon points="997.09,581.16 1000,592 1002.91,581.16" fill="#E95420"/><rect x="1072" y="344" width="200" height="64" fill="transparent" stroke="none"/><text font-family="Ubuntu Sans"><tspan x="1072" y="368.92" font-size="18" font-weight="400" fill="#666666">certificates</tspan><tspan x="1072" y="392.92" font-size="18" font-weight="400" fill="#666666">interface: tls-certificates</tspan></text></g><g data-dg-arrow="true" data-component-id="edge-6"><line x1="824" y1="304" x2="824" y2="320" fill="none" stroke="#E95420" stroke-width="1" stroke-miterlimit="10"/><line x1="824" y1="320" x2="824" y2="328" fill="none" stroke="#E95420" stroke-width="1" stroke-miterlimit="10"/><line x1="824" y1="328" x2="1512" y2="328" fill="none" stroke="#E95420" stroke-width="1" stroke-miterlimit="10"/><line x1="1512" y1="328" x2="1512" y2="464" fill="none" stroke="#E95420" stroke-width="1" stroke-miterlimit="10"/><line x1="1512" y1="464" x2="1008" y2="464" fill="none" stroke="#E95420" stroke-width="1" stroke-miterlimit="10"/><line x1="1008" y1="464" x2="1008" y2="472" fill="none" stroke="#E95420" stroke-width="1" stroke-miterlimit="10"/><line x1="1008" y1="472" x2="1008" y2="568" fill="none" stroke="#E95420" stroke-width="1" stroke-miterlimit="10"/><line x1="1008" y1="568" x2="1264" y2="568" fill="none" stroke="#E95420" stroke-width="1" stroke-miterlimit="10"/><line x1="1264" y1="568" x2="1264" y2="581.16" fill="none" stroke="#E95420" stroke-width="1" stroke-miterlimit="10"/><polygon points="1261.09,581.16 1264,592 1266.91,581.16" fill="#E95420"/><rect x="1304" y="344" width="200" height="64" fill="transparent" stroke="none"/><text font-family="Ubuntu Sans"><tspan x="1304" y="368.92" font-size="18" font-weight="400" fill="#666666">certificates</tspan><tspan x="1304" y="392.92" font-size="18" font-weight="400" fill="#666666">interface: tls-certificates</tspan></text></g></svg>
