<svg xmlns="http://www.w3.org/2000/svg" width="848" height="664" viewBox="0 0 848 664" xml:space="preserve">
  <rect width="848" height="664" fill="#FFFFFF" />
  <g data-component-id="_auto_1">
  <rect x="24" y="24" width="256" height="40" fill="#FFFFFF" stroke="none" stroke-width="1" stroke-miterlimit="10" />
  <text font-family="Ubuntu Sans">
    <tspan x="32" y="48.92" font-size="18" font-weight="700" fill="#000000">Containerized Android</tspan>
  </text>
  </g>
  <g data-component-id="_auto_2">
  <rect x="304" y="24" width="256" height="40" fill="#FFFFFF" stroke="none" stroke-width="1" stroke-miterlimit="10" />
  <text font-family="Ubuntu Sans">
    <tspan x="312" y="48.92" font-size="18" font-weight="700" fill="#000000">Virtualized Android</tspan>
  </text>
  </g>
  <g data-component-id="lxd_container">
  <rect x="16" y="88" width="272" height="432" fill="#FFFFFF" stroke="#000000" stroke-width="1" stroke-miterlimit="10" />
  <text font-family="Ubuntu Sans">
    <tspan x="24" y="112.92" font-size="18" font-weight="700" fill="#000000">LXD container</tspan>
  </text>
  </g>
  <g data-component-id="lxd_headline">
  <rect x="24" y="160" width="256" height="64" fill="#FFFFFF" stroke="#000000" stroke-width="1" stroke-miterlimit="10" />
  <text font-family="Ubuntu Sans">
    <tspan x="32" y="184.92" font-size="18" font-weight="700" fill="#000000">SELinux removed</tspan>
  </text>
  </g>
  <g data-component-id="lxd_system">
  <rect x="24" y="232" width="256" height="64" fill="#F3F3F3" stroke="#000000" stroke-width="1" stroke-miterlimit="10" />
  <text font-family="Ubuntu Sans">
    <tspan x="32" y="256.92" font-size="18" font-weight="400" fill="#000000">Android system</tspan>
  </text>
  </g>
  <g data-component-id="vm">
  <rect x="296" y="88" width="272" height="432" fill="#F3F3F3" stroke="#000000" stroke-width="1" stroke-miterlimit="10" />
  <text font-family="Ubuntu Sans">
    <tspan x="304" y="112.92" font-size="18" font-weight="700" fill="#000000">VM</tspan>
  </text>
  </g>
  <g data-component-id="vm_headline">
  <rect x="304" y="160" width="256" height="112" fill="#FFFFFF" stroke="#000000" stroke-width="1" stroke-miterlimit="10" />
  <text font-family="Ubuntu Sans">
    <tspan x="312" y="184.92" font-size="18" font-weight="700" fill="#000000">SELinux ON</tspan>
    <tspan x="312" y="208.92" font-size="18" font-weight="400" fill="#000000">/enforcing mode</tspan>
    <tspan x="312" y="232.92" font-size="18" font-weight="400" fill="#000000">App sandboxing</tspan>
    <tspan x="312" y="256.92" font-size="18" font-weight="400" fill="#000000">System service isolation</tspan>
  </text>
  </g>
  <g data-component-id="vm_system">
  <rect x="304" y="280" width="256" height="112" fill="#FFFFFF" stroke="#000000" stroke-width="1" stroke-miterlimit="10" />
  <text font-family="Ubuntu Sans">
    <tspan x="312" y="304.92" font-size="18" font-weight="400" fill="#000000">Android system</tspan>
  </text>
  </g>
  <g data-component-id="vm_kernel">
  <rect x="304" y="400" width="256" height="112" fill="#FFFFFF" stroke="#000000" stroke-width="1" stroke-miterlimit="10" />
  <text font-family="Ubuntu Sans">
    <tspan x="312" y="424.92" font-size="18" font-weight="400" fill="#000000">Android kernel</tspan>
  </text>
  </g>
  <g data-component-id="note_left">
  <rect x="584" y="88" width="240" height="40" fill="#FFFFFF" stroke="none" stroke-width="1" stroke-miterlimit="10" />
  <text font-family="Ubuntu Sans">
    <tspan x="592" y="112.92" font-size="18" font-weight="400" fill="#666666">SELinux assumptions only</tspan>
  </text>
  </g>
  <g data-component-id="_auto_3">
  <line class="dg-separator" x1="24" y1="548.0" x2="824" y2="548.0" fill="none" stroke="#000000" stroke-width="1" stroke-miterlimit="10" stroke-dasharray="12 8" />
  </g>
  <g data-component-id="host_container">
  <rect x="24" y="576" width="256" height="64" fill="#F3F3F3" stroke="#000000" stroke-width="1" stroke-miterlimit="10" />
  <text font-family="Ubuntu Sans">
    <tspan x="32" y="600.92" font-size="18" font-weight="400" fill="#000000">Host kernel (AppArmor)</tspan>
  </text>
  </g>
  <g data-component-id="host_vm">
  <rect x="304" y="576" width="256" height="64" fill="#F3F3F3" stroke="#000000" stroke-width="1" stroke-miterlimit="10" />
  <text font-family="Ubuntu Sans">
    <tspan x="312" y="600.92" font-size="18" font-weight="400" fill="#000000">Host kernel (AppArmor)</tspan>
  </text>
  </g>
  <g data-component-id="_auto_4">
  <rect x="584" y="576" width="240" height="64" fill="#FFFFFF" stroke="none" stroke-width="1" stroke-miterlimit="10" />
  <text font-family="Ubuntu Sans">
    <tspan x="592" y="600.92" font-size="18" font-weight="400" fill="#666666">AppArmor enforcement</tspan>
    <tspan x="592" y="624.92" font-size="18" font-weight="400" fill="#666666">/ VM confinement</tspan>
  </text>
  </g>
  <g id="layout-grid" opacity="0.35" style="pointer-events:none">
    <rect x="24" y="24" width="800" height="616" fill="none" stroke="#0066CC" stroke-width="1" stroke-dasharray="6 4" />
    <rect x="24" y="24" width="256" height="616" fill="#3399FF" opacity="0.08" />
    <line x1="24" y1="24" x2="24" y2="640" stroke="#0066CC" stroke-width="0.75" />
    <line x1="280" y1="24" x2="280" y2="640" stroke="#0066CC" stroke-width="0.75" />
    <text x="152.0" y="20" text-anchor="middle" font-size="9" fill="#0066CC" font-family="Ubuntu Sans, sans-serif">256px</text>
    <rect x="304" y="24" width="256" height="616" fill="#3399FF" opacity="0.08" />
    <line x1="304" y1="24" x2="304" y2="640" stroke="#0066CC" stroke-width="0.75" />
    <line x1="560" y1="24" x2="560" y2="640" stroke="#0066CC" stroke-width="0.75" />
    <text x="432.0" y="20" text-anchor="middle" font-size="9" fill="#0066CC" font-family="Ubuntu Sans, sans-serif">256px</text>
    <rect x="584" y="24" width="240" height="616" fill="#3399FF" opacity="0.08" />
    <line x1="584" y1="24" x2="584" y2="640" stroke="#0066CC" stroke-width="0.75" />
    <line x1="824" y1="24" x2="824" y2="640" stroke="#0066CC" stroke-width="0.75" />
    <text x="704.0" y="20" text-anchor="middle" font-size="9" fill="#0066CC" font-family="Ubuntu Sans, sans-serif">240px</text>
    <rect x="280" y="24" width="24" height="616" fill="#9933FF" opacity="0.06" />
    <text x="292.0" y="20" text-anchor="middle" font-size="7" fill="#9933FF" font-family="Ubuntu Sans, sans-serif">24</text>
    <rect x="560" y="24" width="24" height="616" fill="#9933FF" opacity="0.06" />
    <text x="572.0" y="20" text-anchor="middle" font-size="7" fill="#9933FF" font-family="Ubuntu Sans, sans-serif">24</text>
    <rect x="24" y="24" width="800" height="40" fill="#3399FF" opacity="0.08" />
    <line x1="24" y1="24" x2="824" y2="24" stroke="#0066CC" stroke-width="0.75" />
    <line x1="24" y1="64" x2="824" y2="64" stroke="#0066CC" stroke-width="0.75" />
    <text x="828" y="47.0" font-size="9" fill="#0066CC" font-family="Ubuntu Sans, sans-serif">40px</text>
    <rect x="24" y="88" width="800" height="432" fill="#3399FF" opacity="0.08" />
    <line x1="24" y1="88" x2="824" y2="88" stroke="#0066CC" stroke-width="0.75" />
    <line x1="24" y1="520" x2="824" y2="520" stroke="#0066CC" stroke-width="0.75" />
    <text x="828" y="307.0" font-size="9" fill="#0066CC" font-family="Ubuntu Sans, sans-serif">432px</text>
    <rect x="24" y="544" width="800" height="8" fill="#3399FF" opacity="0.08" />
    <line x1="24" y1="544" x2="824" y2="544" stroke="#0066CC" stroke-width="0.75" />
    <line x1="24" y1="552" x2="824" y2="552" stroke="#0066CC" stroke-width="0.75" />
    <text x="828" y="551.0" font-size="9" fill="#0066CC" font-family="Ubuntu Sans, sans-serif">8px</text>
    <rect x="24" y="576" width="800" height="64" fill="#3399FF" opacity="0.08" />
    <line x1="24" y1="576" x2="824" y2="576" stroke="#0066CC" stroke-width="0.75" />
    <line x1="24" y1="640" x2="824" y2="640" stroke="#0066CC" stroke-width="0.75" />
    <text x="828" y="611.0" font-size="9" fill="#0066CC" font-family="Ubuntu Sans, sans-serif">64px</text>
    <rect x="24" y="64" width="800" height="24" fill="#9933FF" opacity="0.06" />
    <text x="828" y="79.0" font-size="7" fill="#9933FF" font-family="Ubuntu Sans, sans-serif">24</text>
    <rect x="24" y="520" width="800" height="24" fill="#9933FF" opacity="0.06" />
    <text x="828" y="535.0" font-size="7" fill="#9933FF" font-family="Ubuntu Sans, sans-serif">24</text>
    <rect x="24" y="552" width="800" height="24" fill="#9933FF" opacity="0.06" />
    <text x="828" y="567.0" font-size="7" fill="#9933FF" font-family="Ubuntu Sans, sans-serif">24</text>
  </g>
</svg>
