<svg xmlns="http://www.w3.org/2000/svg" width="848" height="672" viewBox="0 0 848 672" xml:space="preserve">
  <rect width="848" height="672" fill="#FFFFFF" />
  <g data-component-id="_auto_1">
  <rect x="24" y="24" width="256" height="40" fill="#FFFFFF" stroke="none" stroke-width="1" stroke-miterlimit="10" />
  <text font-family="Ubuntu Sans">
    <tspan x="32" y="48.92" font-size="18" font-weight="700" fill="#000000">Containerized Android</tspan>
  </text>
  </g>
  <g data-component-id="_auto_2">
  <rect x="304" y="24" width="256" height="40" fill="#FFFFFF" stroke="none" stroke-width="1" stroke-miterlimit="10" />
  <text font-family="Ubuntu Sans">
    <tspan x="312" y="48.92" font-size="18" font-weight="700" fill="#000000">Virtualized Android</tspan>
  </text>
  </g>
  <g data-component-id="anbox_container">
  <rect x="16" y="88" width="272" height="288" fill="#FFFFFF" stroke="#000000" stroke-width="1" stroke-miterlimit="10" />
  <text font-family="Ubuntu Sans">
    <tspan x="24" y="112.92" font-size="18" font-weight="700" fill="#000000">Anbox instance</tspan>
  </text>
  </g>
  <g data-component-id="container_system">
  <rect x="24" y="160" width="256" height="64" fill="#F3F3F3" stroke="#000000" stroke-width="1" stroke-miterlimit="10" />
  <text font-family="Ubuntu Sans">
    <tspan x="32" y="184.92" font-size="18" font-weight="400" fill="#000000">Android system</tspan>
    <tspan x="32" y="208.92" font-size="18" font-weight="400" fill="#000000">(App/Framework/API)</tspan>
  </text>
  </g>
  <g data-component-id="container_runtime">
  <rect x="24" y="232" width="256" height="64" fill="#F3F3F3" stroke="#000000" stroke-width="1" stroke-miterlimit="10" />
  <text font-family="Ubuntu Sans">
    <tspan x="32" y="256.92" font-size="18" font-weight="400" fill="#000000">Android runtime</tspan>
  </text>
  </g>
  <g data-component-id="anbox_vm">
  <rect x="296" y="88" width="272" height="288" fill="#F3F3F3" stroke="#000000" stroke-width="1" stroke-miterlimit="10" />
  <text font-family="Ubuntu Sans">
    <tspan x="304" y="112.92" font-size="18" font-weight="700" fill="#000000">Anbox instance</tspan>
  </text>
  </g>
  <g data-component-id="vm_system">
  <rect x="304" y="160" width="256" height="64" fill="#FFFFFF" stroke="#000000" stroke-width="1" stroke-miterlimit="10" />
  <text font-family="Ubuntu Sans">
    <tspan x="312" y="184.92" font-size="18" font-weight="400" fill="#000000">Android system</tspan>
    <tspan x="312" y="208.92" font-size="18" font-weight="400" fill="#000000">(App/Framework/API)</tspan>
  </text>
  </g>
  <g data-component-id="vm_runtime">
  <rect x="304" y="232" width="256" height="64" fill="#FFFFFF" stroke="#000000" stroke-width="1" stroke-miterlimit="10" />
  <text font-family="Ubuntu Sans">
    <tspan x="312" y="256.92" font-size="18" font-weight="400" fill="#000000">Android runtime</tspan>
  </text>
  </g>
  <g data-component-id="vm_kernel">
  <rect x="304" y="304" width="256" height="64" fill="#FFFFFF" stroke="#000000" stroke-width="1" stroke-miterlimit="10" />
  <text font-family="Ubuntu Sans">
    <tspan x="312" y="328.92" font-size="18" font-weight="400" fill="#000000">Android kernel</tspan>
  </text>
  </g>
  <g data-component-id="_auto_3">
  <rect x="584" y="88" width="240" height="64" fill="#FFFFFF" stroke="none" stroke-width="1" stroke-miterlimit="10" />
  <text font-family="Ubuntu Sans">
    <tspan x="592" y="112.92" font-size="18" font-weight="400" fill="#666666">Android owns everything</tspan>
    <tspan x="592" y="136.92" font-size="18" font-weight="400" fill="#666666">above</tspan>
  </text>
  </g>
  <g data-component-id="_auto_4">
  <line class="dg-separator" x1="24" y1="404.0" x2="824" y2="404.0" fill="none" stroke="#000000" stroke-width="1" stroke-miterlimit="10" stroke-dasharray="12 8" />
  </g>
  <g data-component-id="host_container">
  <rect x="16" y="432" width="272" height="216" fill="#FFFFFF" stroke="#000000" stroke-width="1" stroke-miterlimit="10" />
  <text font-family="Ubuntu Sans">
    <tspan x="24" y="456.92" font-size="18" font-weight="700" fill="#000000">Host OS &amp; hardware</tspan>
  </text>
  </g>
  <g data-component-id="host_container_kernel">
  <rect x="24" y="504" width="256" height="64" fill="#F3F3F3" stroke="#000000" stroke-width="1" stroke-miterlimit="10" />
  <text font-family="Ubuntu Sans">
    <tspan x="32" y="528.92" font-size="18" font-weight="400" fill="#000000">Host Linux kernel</tspan>
    <tspan x="32" y="552.92" font-size="18" font-weight="400" fill="#000000">(shared kernel)</tspan>
  </text>
  </g>
  <g data-component-id="host_container_hw">
  <rect x="24" y="576" width="256" height="64" fill="#F3F3F3" stroke="#000000" stroke-width="1" stroke-miterlimit="10" />
  <text font-family="Ubuntu Sans">
    <tspan x="32" y="600.92" font-size="18" font-weight="400" fill="#000000">Host hardware</tspan>
  </text>
  </g>
  <g data-component-id="host_vm">
  <rect x="296" y="432" width="272" height="216" fill="#FFFFFF" stroke="#000000" stroke-width="1" stroke-miterlimit="10" />
  <text font-family="Ubuntu Sans">
    <tspan x="304" y="456.92" font-size="18" font-weight="700" fill="#000000">Host OS &amp; hardware</tspan>
  </text>
  </g>
  <g data-component-id="host_vm_kernel">
  <rect x="304" y="504" width="256" height="64" fill="#F3F3F3" stroke="#000000" stroke-width="1" stroke-miterlimit="10" />
  <text font-family="Ubuntu Sans">
    <tspan x="312" y="528.92" font-size="18" font-weight="400" fill="#000000">Host Linux kernel</tspan>
  </text>
  </g>
  <g data-component-id="host_vm_hw">
  <rect x="304" y="576" width="256" height="64" fill="#F3F3F3" stroke="#000000" stroke-width="1" stroke-miterlimit="10" />
  <text font-family="Ubuntu Sans">
    <tspan x="312" y="600.92" font-size="18" font-weight="400" fill="#000000">Host hardware</tspan>
  </text>
  </g>
  <g data-component-id="_auto_5">
  <rect x="584" y="432" width="240" height="64" fill="#FFFFFF" stroke="none" stroke-width="1" stroke-miterlimit="10" />
  <text font-family="Ubuntu Sans">
    <tspan x="592" y="456.92" font-size="18" font-weight="400" fill="#666666">Android has no control</tspan>
    <tspan x="592" y="480.92" font-size="18" font-weight="400" fill="#666666">below</tspan>
  </text>
  </g>
  <g id="layout-grid" opacity="0.35" style="pointer-events:none">
    <rect x="24" y="24" width="800" height="624" fill="none" stroke="#0066CC" stroke-width="1" stroke-dasharray="6 4" />
    <rect x="24" y="24" width="256" height="624" fill="#3399FF" opacity="0.08" />
    <line x1="24" y1="24" x2="24" y2="648" stroke="#0066CC" stroke-width="0.75" />
    <line x1="280" y1="24" x2="280" y2="648" stroke="#0066CC" stroke-width="0.75" />
    <text x="152.0" y="20" text-anchor="middle" font-size="9" fill="#0066CC" font-family="Ubuntu Sans, sans-serif">256px</text>
    <rect x="304" y="24" width="256" height="624" fill="#3399FF" opacity="0.08" />
    <line x1="304" y1="24" x2="304" y2="648" stroke="#0066CC" stroke-width="0.75" />
    <line x1="560" y1="24" x2="560" y2="648" stroke="#0066CC" stroke-width="0.75" />
    <text x="432.0" y="20" text-anchor="middle" font-size="9" fill="#0066CC" font-family="Ubuntu Sans, sans-serif">256px</text>
    <rect x="584" y="24" width="240" height="624" fill="#3399FF" opacity="0.08" />
    <line x1="584" y1="24" x2="584" y2="648" stroke="#0066CC" stroke-width="0.75" />
    <line x1="824" y1="24" x2="824" y2="648" stroke="#0066CC" stroke-width="0.75" />
    <text x="704.0" y="20" text-anchor="middle" font-size="9" fill="#0066CC" font-family="Ubuntu Sans, sans-serif">240px</text>
    <rect x="280" y="24" width="24" height="624" fill="#9933FF" opacity="0.06" />
    <text x="292.0" y="20" text-anchor="middle" font-size="7" fill="#9933FF" font-family="Ubuntu Sans, sans-serif">24</text>
    <rect x="560" y="24" width="24" height="624" fill="#9933FF" opacity="0.06" />
    <text x="572.0" y="20" text-anchor="middle" font-size="7" fill="#9933FF" font-family="Ubuntu Sans, sans-serif">24</text>
    <rect x="24" y="24" width="800" height="40" fill="#3399FF" opacity="0.08" />
    <line x1="24" y1="24" x2="824" y2="24" stroke="#0066CC" stroke-width="0.75" />
    <line x1="24" y1="64" x2="824" y2="64" stroke="#0066CC" stroke-width="0.75" />
    <text x="828" y="47.0" font-size="9" fill="#0066CC" font-family="Ubuntu Sans, sans-serif">40px</text>
    <rect x="24" y="88" width="800" height="288" fill="#3399FF" opacity="0.08" />
    <line x1="24" y1="88" x2="824" y2="88" stroke="#0066CC" stroke-width="0.75" />
    <line x1="24" y1="376" x2="824" y2="376" stroke="#0066CC" stroke-width="0.75" />
    <text x="828" y="235.0" font-size="9" fill="#0066CC" font-family="Ubuntu Sans, sans-serif">288px</text>
    <rect x="24" y="400" width="800" height="8" fill="#3399FF" opacity="0.08" />
    <line x1="24" y1="400" x2="824" y2="400" stroke="#0066CC" stroke-width="0.75" />
    <line x1="24" y1="408" x2="824" y2="408" stroke="#0066CC" stroke-width="0.75" />
    <text x="828" y="407.0" font-size="9" fill="#0066CC" font-family="Ubuntu Sans, sans-serif">8px</text>
    <rect x="24" y="432" width="800" height="216" fill="#3399FF" opacity="0.08" />
    <line x1="24" y1="432" x2="824" y2="432" stroke="#0066CC" stroke-width="0.75" />
    <line x1="24" y1="648" x2="824" y2="648" stroke="#0066CC" stroke-width="0.75" />
    <text x="828" y="543.0" font-size="9" fill="#0066CC" font-family="Ubuntu Sans, sans-serif">216px</text>
    <rect x="24" y="64" width="800" height="24" fill="#9933FF" opacity="0.06" />
    <text x="828" y="79.0" font-size="7" fill="#9933FF" font-family="Ubuntu Sans, sans-serif">24</text>
    <rect x="24" y="376" width="800" height="24" fill="#9933FF" opacity="0.06" />
    <text x="828" y="391.0" font-size="7" fill="#9933FF" font-family="Ubuntu Sans, sans-serif">24</text>
    <rect x="24" y="408" width="800" height="24" fill="#9933FF" opacity="0.06" />
    <text x="828" y="423.0" font-size="7" fill="#9933FF" font-family="Ubuntu Sans, sans-serif">24</text>
  </g>
</svg>
