<svg xmlns="http://www.w3.org/2000/svg" width="984" height="400" viewBox="0 0 984 400" xml:space="preserve">
  <rect width="984" height="400" fill="#FFFFFF" />
  <g data-component-id="application_layer">
    <rect x="24" y="24" width="152" height="64" fill="#FFFFFF" stroke="none" stroke-width="1" stroke-miterlimit="10" />
    <text font-family="Ubuntu Sans">
      <tspan x="32" y="48.92" font-size="18" font-weight="400" fill="#666666" font-family="Ubuntu Sans">Application layer</tspan>
    </text>
  </g>
  <g data-component-id="signal_note">
    <rect x="24" y="112" width="152" height="88" fill="#FFFFFF" stroke="none" stroke-width="1" stroke-miterlimit="10" />
    <text font-family="Ubuntu Sans">
      <tspan x="32" y="133.16" font-size="14" font-weight="400" fill="#666666" font-family="Ubuntu Sans">metrics + logs</tspan>
    </text>
  </g>
  <g data-component-id="infra_layer">
    <rect x="24" y="224" width="152" height="64" fill="#FFFFFF" stroke="none" stroke-width="1" stroke-miterlimit="10" />
    <text font-family="Ubuntu Sans">
      <tspan x="32" y="248.92" font-size="18" font-weight="400" fill="#666666" font-family="Ubuntu Sans">Infra layer</tspan>
    </text>
  </g>
  <g data-component-id="operating_system">
    <rect x="24" y="312" width="152" height="64" fill="#FFFFFF" stroke="none" stroke-width="1" stroke-miterlimit="10" />
    <text font-family="Ubuntu Sans">
      <tspan x="32" y="336.92" font-size="18" font-weight="400" fill="#666666" font-family="Ubuntu Sans">Operating system</tspan>
    </text>
  </g>
  <g data-component-id="cos">
    <rect x="200" y="24" width="584" height="352" fill="#FFFFFF" stroke="#000000" stroke-width="1" stroke-miterlimit="10" stroke-dasharray="8 8" />
    <text font-family="Ubuntu Sans">
      <tspan x="208" y="54.56" font-size="24" font-weight="700" fill="#000000" font-family="Ubuntu Sans">Canonical Observability Stack (COS)</tspan>
    </text>
  </g>
  <g data-component-id="tempo">
    <rect x="208" y="96" width="136" height="88" fill="#FFFFFF" stroke="#000000" stroke-width="1" stroke-miterlimit="10" />
    <text font-family="Ubuntu Sans">
      <tspan x="216" y="120.92" font-size="18" font-weight="400" fill="#000000" font-family="Ubuntu Sans">Traces</tspan>
      <tspan x="216" y="141.16" font-size="14" font-weight="400" fill="#666666" font-family="Ubuntu Sans">Tempo</tspan>
    </text>
  </g>
  <g data-component-id="loki">
    <rect x="352" y="96" width="136" height="88" fill="#FFFFFF" stroke="#000000" stroke-width="1" stroke-miterlimit="10" />
    <text font-family="Ubuntu Sans">
      <tspan x="360" y="120.92" font-size="18" font-weight="400" fill="#000000" font-family="Ubuntu Sans">Logs</tspan>
      <tspan x="360" y="141.16" font-size="14" font-weight="400" fill="#666666" font-family="Ubuntu Sans">Loki</tspan>
    </text>
  </g>
  <g data-component-id="prometheus">
    <rect x="496" y="96" width="136" height="88" fill="#FFFFFF" stroke="#000000" stroke-width="1" stroke-miterlimit="10" />
    <text font-family="Ubuntu Sans">
      <tspan x="504" y="120.92" font-size="18" font-weight="400" fill="#000000" font-family="Ubuntu Sans">Metrics</tspan>
      <tspan x="504" y="141.16" font-size="14" font-weight="400" fill="#666666" font-family="Ubuntu Sans">Prometheus</tspan>
    </text>
  </g>
  <g data-component-id="grafana">
    <rect x="640" y="96" width="136" height="88" fill="#FFFFFF" stroke="#000000" stroke-width="1" stroke-miterlimit="10" />
    <text font-family="Ubuntu Sans">
      <tspan x="648" y="120.92" font-size="18" font-weight="400" fill="#000000" font-family="Ubuntu Sans">Dashboards</tspan>
      <tspan x="648" y="144.92" font-size="18" font-weight="400" fill="#000000" font-family="Ubuntu Sans">+ alerts</tspan>
      <tspan x="648" y="165.16" font-size="14" font-weight="400" fill="#666666" font-family="Ubuntu Sans">Grafana</tspan>
    </text>
  </g>
  <g data-component-id="kubernetes">
    <rect x="208" y="192" width="568" height="64" fill="#F3F3F3" stroke="#000000" stroke-width="1" stroke-miterlimit="10" />
    <text font-family="Ubuntu Sans">
      <tspan x="216" y="216.92" font-size="18" font-weight="400" fill="#000000" font-family="Ubuntu Sans">Canonical Kubernetes</tspan>
    </text>
    <g class="dg-icon" transform="translate(720 200)">
      <path d="M32 39.5H16V38.5H32V39.5Z" fill="#000000" />
      <path d="M13.7422 37.2061L13.2617 37.3438L12.7803 37.4805L8.60449 22.8633L9.56543 22.5879L13.7422 37.2061Z" fill="#000000" />
      <path d="M39.291 23.2324L35.2246 37.4629L34.7441 37.3262L34.2637 37.1885L38.3291 22.957L39.291 23.2324Z" fill="#000000" />
      <path d="M22.9707 9.58008L10.2422 20.1875L9.92188 19.8037L9.60156 19.4189L22.3301 8.8125L22.9707 9.58008Z" fill="#000000" />
      <path d="M38.3994 19.4189L38.0791 19.8037L37.7588 20.1875L25.0303 9.58008L25.6709 8.8125L38.3994 19.4189Z" fill="#000000" />
      <path fill-rule="evenodd" clip-rule="evenodd" d="M13.9697 36.4414C15.2303 36.5694 16.2138 37.6344 16.2139 38.9287L16.2012 39.1836C16.0733 40.4444 15.0084 41.4287 13.7139 41.4287L13.459 41.415C12.2821 41.2956 11.3459 40.3605 11.2266 39.1836L11.2139 38.9287C11.2139 37.5482 12.3334 36.4289 13.7139 36.4287L13.9697 36.4414ZM13.7139 37.4287C12.8857 37.4289 12.2139 38.1005 12.2139 38.9287C12.214 39.7569 12.8857 40.4285 13.7139 40.4287C14.5422 40.4287 15.2137 39.757 15.2139 38.9287C15.2138 38.1003 14.5423 37.4287 13.7139 37.4287Z" fill="#000000" />
      <path fill-rule="evenodd" clip-rule="evenodd" d="M34.541 36.4414C35.8016 36.5694 36.7851 37.6344 36.7852 38.9287L36.7725 39.1836C36.6446 40.4444 35.5797 41.4287 34.2852 41.4287L34.0303 41.415C32.8534 41.2956 31.9171 40.3605 31.7979 39.1836L31.7852 38.9287C31.7852 37.5482 32.9047 36.4289 34.2852 36.4287L34.541 36.4414ZM34.2852 37.4287C33.457 37.4289 32.7852 38.1005 32.7852 38.9287C32.7853 39.7569 33.457 40.4285 34.2852 40.4287C35.1135 40.4287 35.785 39.757 35.7852 38.9287C35.7851 38.1003 35.1135 37.4287 34.2852 37.4287Z" fill="#000000" />
      <path fill-rule="evenodd" clip-rule="evenodd" d="M8.82715 18.4414C10.0876 18.5695 11.0712 19.6344 11.0713 20.9287L11.0586 21.1836C10.9308 22.4445 9.86586 23.4287 8.57129 23.4287L8.31543 23.415C7.1389 23.2953 6.20326 22.3603 6.08398 21.1836L6.07129 20.9287C6.07136 19.5481 7.19069 18.4288 8.57129 18.4287L8.82715 18.4414ZM8.57129 19.4287C7.74297 19.4288 7.07135 20.1004 7.07129 20.9287C7.07145 21.757 7.74303 22.4286 8.57129 22.4287C9.39962 22.4287 10.0711 21.757 10.0713 20.9287C10.0712 20.1003 9.39968 19.4287 8.57129 19.4287Z" fill="#000000" />
      <path fill-rule="evenodd" clip-rule="evenodd" d="M39.6836 18.4414C40.9444 18.5692 41.9286 19.6342 41.9287 20.9287L41.916 21.1836C41.7882 22.4444 40.7232 23.4286 39.4287 23.4287L39.1729 23.415C37.9962 23.2954 37.0607 22.3603 36.9414 21.1836L36.9287 20.9287C36.9288 19.5481 38.0481 18.4288 39.4287 18.4287L39.6836 18.4414ZM39.4287 19.4287C38.6004 19.4288 37.9288 20.1004 37.9287 20.9287C37.9289 21.757 38.6004 22.4286 39.4287 22.4287C40.2569 22.4286 40.9286 21.7569 40.9287 20.9287C40.9286 20.1004 40.257 19.4288 39.4287 19.4287Z" fill="#000000" />
      <path fill-rule="evenodd" clip-rule="evenodd" d="M24 5.57129C25.3807 5.57129 26.4999 6.69063 26.5 8.07129C26.5 9.452 25.3807 10.5713 24 10.5713C22.6194 10.5712 21.5 9.45195 21.5 8.07129C21.5001 6.69068 22.6194 5.57137 24 5.57129ZM24 6.57129C23.1717 6.57137 22.5001 7.24297 22.5 8.07129C22.5 8.89967 23.1716 9.57121 24 9.57129C24.8284 9.57129 25.5 8.89972 25.5 8.07129C25.4999 7.24292 24.8284 6.57129 24 6.57129Z" fill="#000000" />
      <path d="M24.5 32.5791L25.9287 31.1504L26.6357 31.8574L24 34.4932L21.3643 31.8574L22.0713 31.1504L23.5 32.5791V28.1436H24.5V32.5791Z" fill="#000000" />
      <path d="M18.5654 22.502L20.8496 24.7559L20.499 25.1123L18.5703 27.0664L18.2188 27.4219L17.5068 26.7197L18.9473 25.2607H14.5V24.2607H18.9238L17.5068 22.8623L18.21 22.1504L18.5654 22.502Z" fill="#000000" />
      <path d="M30.0967 22.7734L28.8867 24.3115H33.5V25.3115H28.9043L30.0977 26.79L29.3193 27.418L29.0049 27.0293L27.2178 24.8154L27.4639 24.502L29.3105 22.1553L30.0967 22.7734Z" fill="#000000" />
      <path d="M26.6357 17.7148L25.9287 18.4219L24.5 16.9932V21.4287H23.5V16.9932L22.0713 18.4219L21.3643 17.7148L24 15.0791L26.6357 17.7148Z" fill="#000000" />
    </g>
  </g>
  <g data-component-id="vm_1">
    <rect x="208" y="264" width="184" height="72" fill="#FFFFFF" stroke="#000000" stroke-width="1" stroke-miterlimit="10" />
    <text font-family="Ubuntu Sans">
      <tspan x="216" y="288.92" font-size="18" font-weight="400" fill="#000000" font-family="Ubuntu Sans">VM</tspan>
    </text>
    <g class="dg-icon" transform="translate(336 272)">
      <path d="M22.3066 30C22.0688 30.314 21.8578 30.6483 21.6777 31H7C6.44772 31 6 31.4477 6 32V37L6.00488 37.1025C6.05278 37.573 6.42703 37.9472 6.89746 37.9951L7 38H22.1172C22.3644 38.3601 22.6456 38.6948 22.9561 39H7C5.89543 39 5 38.1046 5 37V32C5 30.8954 5.89543 30 7 30H22.3066ZM10.5 33.501C11.0523 33.501 11.5 33.9487 11.5 34.501C11.5 35.0533 11.0523 35.501 10.5 35.501C9.94772 35.501 9.5 35.0533 9.5 34.501C9.5 33.9487 9.94772 33.501 10.5 33.501ZM14.5 33.501C15.0523 33.501 15.5 33.9487 15.5 34.501C15.5 35.0533 15.0523 35.501 14.5 35.501C13.9477 35.501 13.5 35.0533 13.5 34.501C13.5 33.9487 13.9477 33.501 14.5 33.501ZM38 19C39.1046 19 40 19.8954 40 21V23.5781C39.6902 23.307 39.3563 23.0626 39 22.8516V21C39 20.4477 38.5523 20 38 20H7C6.44772 20 6 20.4477 6 21V26L6.00488 26.1025C6.05278 26.573 6.42703 26.9472 6.89746 26.9951L7 27H24.8311C24.7126 27.3189 24.6274 27.6537 24.5762 28H7C5.89543 28 5 27.1046 5 26V21C5 19.8954 5.89543 19 7 19H38ZM10.5 22.501C11.0523 22.501 11.5 22.9487 11.5 23.501C11.5 24.0533 11.0523 24.501 10.5 24.501C9.94772 24.501 9.5 24.0533 9.5 23.501C9.5 22.9487 9.94772 22.501 10.5 22.501ZM14.5 22.501C15.0523 22.501 15.5 22.9487 15.5 23.501C15.5 24.0533 15.0523 24.501 14.5 24.501C13.9477 24.501 13.5 24.0533 13.5 23.501C13.5 22.9487 13.9477 22.501 14.5 22.501ZM38 8C39.1046 8 40 8.89543 40 10V15C40 16.1046 39.1046 17 38 17H7C5.89543 17 5 16.1046 5 15V10C5 8.89543 5.89543 8 7 8H38ZM7 9C6.44772 9 6 9.44772 6 10V15L6.00488 15.1025C6.05278 15.573 6.42703 15.9472 6.89746 15.9951L7 16H38L38.1025 15.9951C38.6067 15.9438 39 15.5177 39 15V10C39 9.44772 38.5523 9 38 9H7ZM10.5 11.501C11.0523 11.501 11.5 11.9487 11.5 12.501C11.5 13.0533 11.0523 13.501 10.5 13.501C9.94772 13.501 9.5 13.0533 9.5 12.501C9.5 11.9487 9.94772 11.501 10.5 11.501ZM14.5 11.501C15.0523 11.501 15.5 11.9487 15.5 12.501C15.5 13.0533 15.0523 13.501 14.5 13.501C13.9477 13.501 13.5 13.0533 13.5 12.501C13.5 11.9487 13.9477 11.501 14.5 11.501Z" fill="#000000" />
      <path d="M39.8223 28.7031C39.8223 26.3361 37.934 24.423 35.5918 24.4229C34.0376 24.4229 32.5845 25.3326 31.8564 26.7549C31.7858 26.8929 31.6554 26.9903 31.5029 27.0186C31.3505 27.0468 31.1936 27.0029 31.0781 26.8994C30.6161 26.4846 30.0533 26.2695 29.4678 26.2695C28.1249 26.2695 27.0195 27.3631 27.0195 28.7363V29.5098C27.0194 29.7424 26.8585 29.9447 26.6318 29.9971C24.733 30.4363 23.4229 32.1533 23.4229 34.1426C23.4229 36.5097 25.3109 38.4228 27.6533 38.4229H40.1924C42.5348 38.4228 44.4229 36.5097 44.4229 34.1426C44.4228 31.7746 42.5649 29.8918 40.251 29.8623C40.1036 29.8604 39.9647 29.7935 39.8711 29.6797C39.7776 29.5658 39.7388 29.4164 39.7656 29.2715V29.2695C39.7659 29.2678 39.7669 29.2649 39.7676 29.2607C39.769 29.2526 39.7708 29.2399 39.7734 29.2236C39.7788 29.1905 39.7867 29.1425 39.7939 29.0859C39.8089 28.9697 39.8223 28.8282 39.8223 28.7031ZM40.8135 28.8975C43.4206 29.2035 45.4228 31.4243 45.4229 34.1426C45.4229 37.0501 43.0989 39.4228 40.1924 39.4229H27.6533C24.7468 39.4228 22.4229 37.0501 22.4229 34.1426C22.4229 31.8486 23.8561 29.81 26.0195 29.1279V28.7363C26.0195 26.8128 27.5706 25.2695 29.4678 25.2695C30.1089 25.2695 30.7251 25.4517 31.2656 25.793C32.2233 24.3414 33.8429 23.4229 35.5918 23.4229C38.4982 23.423 40.8223 25.7957 40.8223 28.7031C40.8223 28.7684 40.8173 28.8339 40.8135 28.8975Z" fill="#000000" />
    </g>
  </g>
  <g data-component-id="vm_2">
    <rect x="352" y="264" width="184" height="72" fill="#FFFFFF" stroke="#000000" stroke-width="1" stroke-miterlimit="10" />
    <text font-family="Ubuntu Sans">
      <tspan x="360" y="288.92" font-size="18" font-weight="400" fill="#000000" font-family="Ubuntu Sans">VM</tspan>
    </text>
    <g class="dg-icon" transform="translate(480 272)">
      <path d="M22.3066 30C22.0688 30.314 21.8578 30.6483 21.6777 31H7C6.44772 31 6 31.4477 6 32V37L6.00488 37.1025C6.05278 37.573 6.42703 37.9472 6.89746 37.9951L7 38H22.1172C22.3644 38.3601 22.6456 38.6948 22.9561 39H7C5.89543 39 5 38.1046 5 37V32C5 30.8954 5.89543 30 7 30H22.3066ZM10.5 33.501C11.0523 33.501 11.5 33.9487 11.5 34.501C11.5 35.0533 11.0523 35.501 10.5 35.501C9.94772 35.501 9.5 35.0533 9.5 34.501C9.5 33.9487 9.94772 33.501 10.5 33.501ZM14.5 33.501C15.0523 33.501 15.5 33.9487 15.5 34.501C15.5 35.0533 15.0523 35.501 14.5 35.501C13.9477 35.501 13.5 35.0533 13.5 34.501C13.5 33.9487 13.9477 33.501 14.5 33.501ZM38 19C39.1046 19 40 19.8954 40 21V23.5781C39.6902 23.307 39.3563 23.0626 39 22.8516V21C39 20.4477 38.5523 20 38 20H7C6.44772 20 6 20.4477 6 21V26L6.00488 26.1025C6.05278 26.573 6.42703 26.9472 6.89746 26.9951L7 27H24.8311C24.7126 27.3189 24.6274 27.6537 24.5762 28H7C5.89543 28 5 27.1046 5 26V21C5 19.8954 5.89543 19 7 19H38ZM10.5 22.501C11.0523 22.501 11.5 22.9487 11.5 23.501C11.5 24.0533 11.0523 24.501 10.5 24.501C9.94772 24.501 9.5 24.0533 9.5 23.501C9.5 22.9487 9.94772 22.501 10.5 22.501ZM14.5 22.501C15.0523 22.501 15.5 22.9487 15.5 23.501C15.5 24.0533 15.0523 24.501 14.5 24.501C13.9477 24.501 13.5 24.0533 13.5 23.501C13.5 22.9487 13.9477 22.501 14.5 22.501ZM38 8C39.1046 8 40 8.89543 40 10V15C40 16.1046 39.1046 17 38 17H7C5.89543 17 5 16.1046 5 15V10C5 8.89543 5.89543 8 7 8H38ZM7 9C6.44772 9 6 9.44772 6 10V15L6.00488 15.1025C6.05278 15.573 6.42703 15.9472 6.89746 15.9951L7 16H38L38.1025 15.9951C38.6067 15.9438 39 15.5177 39 15V10C39 9.44772 38.5523 9 38 9H7ZM10.5 11.501C11.0523 11.501 11.5 11.9487 11.5 12.501C11.5 13.0533 11.0523 13.501 10.5 13.501C9.94772 13.501 9.5 13.0533 9.5 12.501C9.5 11.9487 9.94772 11.501 10.5 11.501ZM14.5 11.501C15.0523 11.501 15.5 11.9487 15.5 12.501C15.5 13.0533 15.0523 13.501 14.5 13.501C13.9477 13.501 13.5 13.0533 13.5 12.501C13.5 11.9487 13.9477 11.501 14.5 11.501Z" fill="#000000" />
      <path d="M39.8223 28.7031C39.8223 26.3361 37.934 24.423 35.5918 24.4229C34.0376 24.4229 32.5845 25.3326 31.8564 26.7549C31.7858 26.8929 31.6554 26.9903 31.5029 27.0186C31.3505 27.0468 31.1936 27.0029 31.0781 26.8994C30.6161 26.4846 30.0533 26.2695 29.4678 26.2695C28.1249 26.2695 27.0195 27.3631 27.0195 28.7363V29.5098C27.0194 29.7424 26.8585 29.9447 26.6318 29.9971C24.733 30.4363 23.4229 32.1533 23.4229 34.1426C23.4229 36.5097 25.3109 38.4228 27.6533 38.4229H40.1924C42.5348 38.4228 44.4229 36.5097 44.4229 34.1426C44.4228 31.7746 42.5649 29.8918 40.251 29.8623C40.1036 29.8604 39.9647 29.7935 39.8711 29.6797C39.7776 29.5658 39.7388 29.4164 39.7656 29.2715V29.2695C39.7659 29.2678 39.7669 29.2649 39.7676 29.2607C39.769 29.2526 39.7708 29.2399 39.7734 29.2236C39.7788 29.1905 39.7867 29.1425 39.7939 29.0859C39.8089 28.9697 39.8223 28.8282 39.8223 28.7031ZM40.8135 28.8975C43.4206 29.2035 45.4228 31.4243 45.4229 34.1426C45.4229 37.0501 43.0989 39.4228 40.1924 39.4229H27.6533C24.7468 39.4228 22.4229 37.0501 22.4229 34.1426C22.4229 31.8486 23.8561 29.81 26.0195 29.1279V28.7363C26.0195 26.8128 27.5706 25.2695 29.4678 25.2695C30.1089 25.2695 30.7251 25.4517 31.2656 25.793C32.2233 24.3414 33.8429 23.4229 35.5918 23.4229C38.4982 23.423 40.8223 25.7957 40.8223 28.7031C40.8223 28.7684 40.8173 28.8339 40.8135 28.8975Z" fill="#000000" />
    </g>
  </g>
  <g data-component-id="vm_3">
    <rect x="496" y="264" width="184" height="72" fill="#FFFFFF" stroke="#000000" stroke-width="1" stroke-miterlimit="10" />
    <text font-family="Ubuntu Sans">
      <tspan x="504" y="288.92" font-size="18" font-weight="400" fill="#000000" font-family="Ubuntu Sans">VM</tspan>
    </text>
    <g class="dg-icon" transform="translate(624 272)">
      <path d="M22.3066 30C22.0688 30.314 21.8578 30.6483 21.6777 31H7C6.44772 31 6 31.4477 6 32V37L6.00488 37.1025C6.05278 37.573 6.42703 37.9472 6.89746 37.9951L7 38H22.1172C22.3644 38.3601 22.6456 38.6948 22.9561 39H7C5.89543 39 5 38.1046 5 37V32C5 30.8954 5.89543 30 7 30H22.3066ZM10.5 33.501C11.0523 33.501 11.5 33.9487 11.5 34.501C11.5 35.0533 11.0523 35.501 10.5 35.501C9.94772 35.501 9.5 35.0533 9.5 34.501C9.5 33.9487 9.94772 33.501 10.5 33.501ZM14.5 33.501C15.0523 33.501 15.5 33.9487 15.5 34.501C15.5 35.0533 15.0523 35.501 14.5 35.501C13.9477 35.501 13.5 35.0533 13.5 34.501C13.5 33.9487 13.9477 33.501 14.5 33.501ZM38 19C39.1046 19 40 19.8954 40 21V23.5781C39.6902 23.307 39.3563 23.0626 39 22.8516V21C39 20.4477 38.5523 20 38 20H7C6.44772 20 6 20.4477 6 21V26L6.00488 26.1025C6.05278 26.573 6.42703 26.9472 6.89746 26.9951L7 27H24.8311C24.7126 27.3189 24.6274 27.6537 24.5762 28H7C5.89543 28 5 27.1046 5 26V21C5 19.8954 5.89543 19 7 19H38ZM10.5 22.501C11.0523 22.501 11.5 22.9487 11.5 23.501C11.5 24.0533 11.0523 24.501 10.5 24.501C9.94772 24.501 9.5 24.0533 9.5 23.501C9.5 22.9487 9.94772 22.501 10.5 22.501ZM14.5 22.501C15.0523 22.501 15.5 22.9487 15.5 23.501C15.5 24.0533 15.0523 24.501 14.5 24.501C13.9477 24.501 13.5 24.0533 13.5 23.501C13.5 22.9487 13.9477 22.501 14.5 22.501ZM38 8C39.1046 8 40 8.89543 40 10V15C40 16.1046 39.1046 17 38 17H7C5.89543 17 5 16.1046 5 15V10C5 8.89543 5.89543 8 7 8H38ZM7 9C6.44772 9 6 9.44772 6 10V15L6.00488 15.1025C6.05278 15.573 6.42703 15.9472 6.89746 15.9951L7 16H38L38.1025 15.9951C38.6067 15.9438 39 15.5177 39 15V10C39 9.44772 38.5523 9 38 9H7ZM10.5 11.501C11.0523 11.501 11.5 11.9487 11.5 12.501C11.5 13.0533 11.0523 13.501 10.5 13.501C9.94772 13.501 9.5 13.0533 9.5 12.501C9.5 11.9487 9.94772 11.501 10.5 11.501ZM14.5 11.501C15.0523 11.501 15.5 11.9487 15.5 12.501C15.5 13.0533 15.0523 13.501 14.5 13.501C13.9477 13.501 13.5 13.0533 13.5 12.501C13.5 11.9487 13.9477 11.501 14.5 11.501Z" fill="#000000" />
      <path d="M39.8223 28.7031C39.8223 26.3361 37.934 24.423 35.5918 24.4229C34.0376 24.4229 32.5845 25.3326 31.8564 26.7549C31.7858 26.8929 31.6554 26.9903 31.5029 27.0186C31.3505 27.0468 31.1936 27.0029 31.0781 26.8994C30.6161 26.4846 30.0533 26.2695 29.4678 26.2695C28.1249 26.2695 27.0195 27.3631 27.0195 28.7363V29.5098C27.0194 29.7424 26.8585 29.9447 26.6318 29.9971C24.733 30.4363 23.4229 32.1533 23.4229 34.1426C23.4229 36.5097 25.3109 38.4228 27.6533 38.4229H40.1924C42.5348 38.4228 44.4229 36.5097 44.4229 34.1426C44.4228 31.7746 42.5649 29.8918 40.251 29.8623C40.1036 29.8604 39.9647 29.7935 39.8711 29.6797C39.7776 29.5658 39.7388 29.4164 39.7656 29.2715V29.2695C39.7659 29.2678 39.7669 29.2649 39.7676 29.2607C39.769 29.2526 39.7708 29.2399 39.7734 29.2236C39.7788 29.1905 39.7867 29.1425 39.7939 29.0859C39.8089 28.9697 39.8223 28.8282 39.8223 28.7031ZM40.8135 28.8975C43.4206 29.2035 45.4228 31.4243 45.4229 34.1426C45.4229 37.0501 43.0989 39.4228 40.1924 39.4229H27.6533C24.7468 39.4228 22.4229 37.0501 22.4229 34.1426C22.4229 31.8486 23.8561 29.81 26.0195 29.1279V28.7363C26.0195 26.8128 27.5706 25.2695 29.4678 25.2695C30.1089 25.2695 30.7251 25.4517 31.2656 25.793C32.2233 24.3414 33.8429 23.4229 35.5918 23.4229C38.4982 23.423 40.8223 25.7957 40.8223 28.7031C40.8223 28.7684 40.8173 28.8339 40.8135 28.8975Z" fill="#000000" />
    </g>
  </g>
  <g data-component-id="dashboard_path">
    <rect x="808" y="24" width="152" height="64" fill="#FFFFFF" stroke="none" stroke-width="1" stroke-miterlimit="10" />
    <text font-family="Ubuntu Sans">
      <tspan x="816" y="48.92" font-size="18" font-weight="400" fill="#666666" font-family="Ubuntu Sans">dashboards</tspan>
      <tspan x="816" y="69.16" font-size="14" font-weight="400" fill="#666666" font-family="Ubuntu Sans">web GUI</tspan>
    </text>
  </g>
  <g data-component-id="sysadmin">
    <rect x="808" y="112" width="152" height="64" fill="#FFFFFF" stroke="#000000" stroke-width="1" stroke-miterlimit="10" />
    <text font-family="Ubuntu Sans">
      <tspan x="816" y="136.92" font-size="18" font-weight="400" fill="#000000" font-family="Ubuntu Sans">Sysadmin</tspan>
    </text>
    <g class="dg-icon" transform="translate(904 120)">
      <path fill-rule="evenodd" clip-rule="evenodd" d="M24 25.5C32.2846 25.5 39 29.7 39 34.875V40.5C39 41.0523 38.5523 41.5 38 41.5H10C9.44772 41.5 9 41.0523 9 40.5V34.875C9 29.7 15.7154 25.5 24 25.5ZM24 26.5C20.0155 26.5 16.4557 27.5121 13.9238 29.0947C11.3777 30.6864 10 32.7568 10 34.875V40.5H38V34.875C38 32.7568 36.6223 30.6864 34.0762 29.0947C31.5443 27.5121 27.9845 26.5 24 26.5Z" fill="#000000" />
      <path fill-rule="evenodd" clip-rule="evenodd" d="M24 6.5C28.4182 6.50009 32 10.0818 32 14.5C32 18.9182 28.4182 22.4999 24 22.5C19.5817 22.5 16 18.9183 16 14.5C16 10.0817 19.5817 6.5 24 6.5ZM24 7.5C20.134 7.5 17 10.634 17 14.5C17 18.366 20.134 21.5 24 21.5C27.8659 21.4999 31 18.3659 31 14.5C31 10.6341 27.8659 7.50009 24 7.5Z" fill="#000000" />
    </g>
  </g>
  <g data-component-id="alert_path">
    <rect x="808" y="200" width="152" height="64" fill="#FFFFFF" stroke="none" stroke-width="1" stroke-miterlimit="10" />
    <text font-family="Ubuntu Sans">
      <tspan x="816" y="224.92" font-size="18" font-weight="400" fill="#666666" font-family="Ubuntu Sans">alerts</tspan>
      <tspan x="816" y="245.16" font-size="14" font-weight="400" fill="#666666" font-family="Ubuntu Sans">email</tspan>
    </text>
  </g>
  <g data-component-id="_auto_1">
    <line x1="176" y1="56" x2="200" y2="56" fill="none" stroke="#E95420" stroke-width="1" stroke-miterlimit="10" />
    <line x1="200" y1="56" x2="200" y2="189.1592" fill="none" stroke="#E95420" stroke-width="1" stroke-miterlimit="10" />
    <polygon points="197.0947,189.1592 200,200 202.9053,189.1592" fill="#E95420" />
  </g>
  <g data-component-id="_auto_2">
    <line x1="176" y1="256" x2="200" y2="256" fill="none" stroke="#E95420" stroke-width="1" stroke-miterlimit="10" />
    <line x1="200" y1="256" x2="200" y2="210.8408" fill="none" stroke="#E95420" stroke-width="1" stroke-miterlimit="10" />
    <polygon points="197.0947,210.8408 200,200 202.9053,210.8408" fill="#E95420" />
  </g>
  <g data-component-id="_auto_3">
    <line x1="176" y1="344" x2="200" y2="344" fill="none" stroke="#E95420" stroke-width="1" stroke-miterlimit="10" />
    <line x1="200" y1="344" x2="200" y2="210.8408" fill="none" stroke="#E95420" stroke-width="1" stroke-miterlimit="10" />
    <polygon points="197.0947,210.8408 200,200 202.9053,210.8408" fill="#E95420" />
  </g>
  <g data-component-id="_auto_4">
    <line x1="784" y1="200" x2="808" y2="200" fill="none" stroke="#E95420" stroke-width="1" stroke-miterlimit="10" />
    <line x1="808" y1="200" x2="808" y2="66.8408" fill="none" stroke="#E95420" stroke-width="1" stroke-miterlimit="10" />
    <polygon points="805.0947,66.8408 808,56 810.9053,66.8408" fill="#E95420" />
  </g>
  <g data-component-id="_auto_5">
    <line x1="784" y1="200" x2="808" y2="200" fill="none" stroke="#E95420" stroke-width="1" stroke-miterlimit="10" />
    <line x1="808" y1="200" x2="808" y2="221.1592" fill="none" stroke="#E95420" stroke-width="1" stroke-miterlimit="10" />
    <polygon points="805.0947,221.1592 808,232 810.9053,221.1592" fill="#E95420" />
  </g>
</svg>