<svg xmlns="http://www.w3.org/2000/svg" width="1168" height="792" viewBox="0 0 1168 792" xml:space="preserve">
  <rect width="1168" height="792" fill="#FFFFFF" />
  <text font-family="Ubuntu Sans">
    <tspan x="32" y="54.56" font-size="24" font-weight="700" fill="#000000">Node network connectivity</tspan>
  </text>
  <text font-family="Ubuntu Sans">
    <tspan x="32" y="88.92" font-size="18" font-weight="400" fill="#666666">Networks consumed by each OpenStack node role</tspan>
  </text>
  <rect x="32" y="128" width="1104" height="40" fill="#F3F3F3" stroke="#000000" stroke-width="1" stroke-miterlimit="10" />
  <text font-family="Ubuntu Sans">
    <tspan x="40" y="152.92" font-size="18" font-weight="600" fill="#000000">BMC</tspan>
  </text>
  <rect x="32" y="176" width="1104" height="40" fill="#F3F3F3" stroke="#000000" stroke-width="1" stroke-miterlimit="10" />
  <text font-family="Ubuntu Sans">
    <tspan x="40" y="200.92" font-size="18" font-weight="600" fill="#000000">OAM / provisioning</tspan>
  </text>
  <rect x="32" y="224" width="1104" height="40" fill="#F3F3F3" stroke="#000000" stroke-width="1" stroke-miterlimit="10" />
  <text font-family="Ubuntu Sans">
    <tspan x="40" y="248.92" font-size="18" font-weight="600" fill="#000000">Storage access</tspan>
  </text>
  <rect x="32" y="272" width="1104" height="40" fill="#F3F3F3" stroke="#000000" stroke-width="1" stroke-miterlimit="10" />
  <text font-family="Ubuntu Sans">
    <tspan x="40" y="296.92" font-size="18" font-weight="600" fill="#000000">Storage replication</tspan>
  </text>
  <rect x="32" y="320" width="1104" height="40" fill="#F3F3F3" stroke="#000000" stroke-width="1" stroke-miterlimit="10" />
  <text font-family="Ubuntu Sans">
    <tspan x="40" y="344.92" font-size="18" font-weight="600" fill="#000000">SDN underlay</tspan>
  </text>
  <rect x="32" y="368" width="1104" height="40" fill="#F3F3F3" stroke="#000000" stroke-width="1" stroke-miterlimit="10" />
  <text font-family="Ubuntu Sans">
    <tspan x="40" y="392.92" font-size="18" font-weight="600" fill="#000000">Internal API</tspan>
  </text>
  <rect x="32" y="416" width="1104" height="40" fill="#F3F3F3" stroke="#000000" stroke-width="1" stroke-miterlimit="10" />
  <text font-family="Ubuntu Sans">
    <tspan x="40" y="440.92" font-size="18" font-weight="600" fill="#000000">Public API</tspan>
  </text>
  <rect x="32" y="464" width="1104" height="40" fill="#F3F3F3" stroke="#000000" stroke-width="1" stroke-miterlimit="10" />
  <text font-family="Ubuntu Sans">
    <tspan x="40" y="488.92" font-size="18" font-weight="600" fill="#000000">Provider network</tspan>
  </text>
  <line x1="288" y1="168" x2="288" y2="541.1592" fill="none" stroke="#E95420" stroke-width="1" stroke-miterlimit="10" />
  <polygon points="285.0947,541.1592 288,552 290.9053,541.1592" fill="#E95420" />
  <line x1="320" y1="216" x2="320" y2="541.1592" fill="none" stroke="#E95420" stroke-width="1" stroke-miterlimit="10" />
  <polygon points="317.0947,541.1592 320,552 322.9053,541.1592" fill="#E95420" />
  <line x1="448" y1="408" x2="448" y2="541.1592" fill="none" stroke="#E95420" stroke-width="1" stroke-miterlimit="10" />
  <polygon points="445.0947,541.1592 448,552 450.9053,541.1592" fill="#E95420" />
  <line x1="480" y1="456" x2="480" y2="541.1592" fill="none" stroke="#E95420" stroke-width="1" stroke-miterlimit="10" />
  <polygon points="477.0947,541.1592 480,552 482.9053,541.1592" fill="#E95420" />
  <line x1="512" y1="504" x2="512" y2="541.1592" fill="none" stroke="#E95420" stroke-width="1" stroke-miterlimit="10" />
  <polygon points="509.0947,541.1592 512,552 514.9053,541.1592" fill="#E95420" />
  <line x1="592" y1="168" x2="592" y2="541.1592" fill="none" stroke="#E95420" stroke-width="1" stroke-miterlimit="10" />
  <polygon points="589.0947,541.1592 592,552 594.9053,541.1592" fill="#E95420" />
  <line x1="624" y1="216" x2="624" y2="541.1592" fill="none" stroke="#E95420" stroke-width="1" stroke-miterlimit="10" />
  <polygon points="621.0947,541.1592 624,552 626.9053,541.1592" fill="#E95420" />
  <line x1="656" y1="264" x2="656" y2="541.1592" fill="none" stroke="#E95420" stroke-width="1" stroke-miterlimit="10" />
  <polygon points="653.0947,541.1592 656,552 658.9053,541.1592" fill="#E95420" />
  <line x1="688" y1="312" x2="688" y2="541.1592" fill="none" stroke="#E95420" stroke-width="1" stroke-miterlimit="10" />
  <polygon points="685.0947,541.1592 688,552 690.9053,541.1592" fill="#E95420" />
  <line x1="720" y1="360" x2="720" y2="541.1592" fill="none" stroke="#E95420" stroke-width="1" stroke-miterlimit="10" />
  <polygon points="717.0947,541.1592 720,552 722.9053,541.1592" fill="#E95420" />
  <line x1="752" y1="408" x2="752" y2="541.1592" fill="none" stroke="#E95420" stroke-width="1" stroke-miterlimit="10" />
  <polygon points="749.0947,541.1592 752,552 754.9053,541.1592" fill="#E95420" />
  <line x1="784" y1="456" x2="784" y2="541.1592" fill="none" stroke="#E95420" stroke-width="1" stroke-miterlimit="10" />
  <polygon points="781.0947,541.1592 784,552 786.9053,541.1592" fill="#E95420" />
  <line x1="896" y1="168" x2="896" y2="541.1592" fill="none" stroke="#E95420" stroke-width="1" stroke-miterlimit="10" />
  <polygon points="893.0947,541.1592 896,552 898.9053,541.1592" fill="#E95420" />
  <line x1="928" y1="216" x2="928" y2="541.1592" fill="none" stroke="#E95420" stroke-width="1" stroke-miterlimit="10" />
  <polygon points="925.0947,541.1592 928,552 930.9053,541.1592" fill="#E95420" />
  <line x1="960" y1="264" x2="960" y2="541.1592" fill="none" stroke="#E95420" stroke-width="1" stroke-miterlimit="10" />
  <polygon points="957.0947,541.1592 960,552 962.9053,541.1592" fill="#E95420" />
  <line x1="992" y1="312" x2="992" y2="541.1592" fill="none" stroke="#E95420" stroke-width="1" stroke-miterlimit="10" />
  <polygon points="989.0947,541.1592 992,552 994.9053,541.1592" fill="#E95420" />
  <line x1="1024" y1="360" x2="1024" y2="541.1592" fill="none" stroke="#E95420" stroke-width="1" stroke-miterlimit="10" />
  <polygon points="1021.0947,541.1592 1024,552 1026.9053,541.1592" fill="#E95420" />
  <line x1="1056" y1="408" x2="1056" y2="541.1592" fill="none" stroke="#E95420" stroke-width="1" stroke-miterlimit="10" />
  <polygon points="1053.0947,541.1592 1056,552 1058.9053,541.1592" fill="#E95420" />
  <line x1="1088" y1="456" x2="1088" y2="541.1592" fill="none" stroke="#E95420" stroke-width="1" stroke-miterlimit="10" />
  <polygon points="1085.0947,541.1592 1088,552 1090.9053,541.1592" fill="#E95420" />
  <line x1="1120" y1="504" x2="1120" y2="541.1592" fill="none" stroke="#E95420" stroke-width="1" stroke-miterlimit="10" />
  <polygon points="1117.0947,541.1592 1120,552 1122.9053,541.1592" fill="#E95420" />
  <rect x="272" y="552" width="256" height="64" fill="#FFFFFF" stroke="#000000" stroke-width="1" stroke-miterlimit="10" />
  <text font-family="Ubuntu Sans">
    <tspan x="280" y="576.92" font-size="18" font-weight="600" fill="#000000">Infrastructure</tspan>
    <tspan x="280" y="600.92" font-size="18" font-weight="600" fill="#000000">node</tspan>
  </text>
  <g transform="translate(472 560)">
<path d="M39.5 30C40.6046 30 41.5 30.8954 41.5 32V37C41.5 38.1046 40.6046 39 39.5 39H24.5V40.4277C25.5716 40.6573 26.375 41.6099 26.375 42.75C26.375 44.0617 25.3117 45.125 24 45.125C22.6883 45.125 21.625 44.0617 21.625 42.75C21.625 41.6099 22.4284 40.6574 23.5 40.4277V39H8.5C7.39543 39 6.5 38.1046 6.5 37V32C6.5 30.8954 7.39543 30 8.5 30H39.5ZM24 41.375C23.2406 41.375 22.625 41.9906 22.625 42.75C22.625 43.5094 23.2406 44.125 24 44.125C24.7594 44.125 25.375 43.5094 25.375 42.75C25.375 41.9906 24.7594 41.375 24 41.375ZM8.5 31C7.94772 31 7.5 31.4477 7.5 32V37L7.50488 37.1025C7.55278 37.573 7.92703 37.9472 8.39746 37.9951L8.5 38H39.5L39.6025 37.9951C40.1067 37.9438 40.5 37.5177 40.5 37V32C40.5 31.4477 40.0523 31 39.5 31H8.5ZM12 33.501C12.5523 33.501 13 33.9487 13 34.501C13 35.0533 12.5523 35.501 12 35.501C11.4477 35.501 11 35.0533 11 34.501C11 33.9487 11.4477 33.501 12 33.501ZM39.5 19C40.6046 19 41.5 19.8954 41.5 21V26C41.5 27.1046 40.6046 28 39.5 28H8.5C7.39543 28 6.5 27.1046 6.5 26V21C6.5 19.8954 7.39543 19 8.5 19H39.5ZM8.5 20C7.94772 20 7.5 20.4477 7.5 21V26L7.50488 26.1025C7.55278 26.573 7.92703 26.9472 8.39746 26.9951L8.5 27H39.5L39.6025 26.9951C40.1067 26.9438 40.5 26.5177 40.5 26V21C40.5 20.4477 40.0523 20 39.5 20H8.5ZM12 22.501C12.5523 22.501 13 22.9487 13 23.501C13 24.0533 12.5523 24.501 12 24.501C11.4477 24.501 11 24.0533 11 23.501C11 22.9487 11.4477 22.501 12 22.501ZM39.5 8C40.6046 8 41.5 8.89543 41.5 10V15C41.5 16.1046 40.6046 17 39.5 17H8.5C7.39543 17 6.5 16.1046 6.5 15V10C6.5 8.89543 7.39543 8 8.5 8H39.5ZM8.5 9C7.94772 9 7.5 9.44772 7.5 10V15L7.50488 15.1025C7.55278 15.573 7.92703 15.9472 8.39746 15.9951L8.5 16H39.5L39.6025 15.9951C40.1067 15.9438 40.5 15.5177 40.5 15V10C40.5 9.44772 40.0523 9 39.5 9H8.5ZM12 11.501C12.5523 11.501 13 11.9487 13 12.501C13 13.0533 12.5523 13.501 12 13.501C11.4477 13.501 11 13.0533 11 12.501C11 11.9487 11.4477 11.501 12 11.501Z" fill="#000000" />

<circle cx="16" cy="12.501" r="1" fill="#000000" />

<circle cx="16" cy="23.501" r="1" fill="#000000" />

<circle cx="16" cy="34.501" r="1" fill="#000000" />

  </g>
  <rect x="576" y="552" width="256" height="64" fill="#FFFFFF" stroke="#000000" stroke-width="1" stroke-miterlimit="10" />
  <text font-family="Ubuntu Sans">
    <tspan x="584" y="576.92" font-size="18" font-weight="600" fill="#000000">Control node</tspan>
  </text>
  <g transform="translate(776 560)">
<path d="M32 39.5H16V38.5H32V39.5Z" fill="#000000" />

<path d="M13.7422 37.2061L13.2617 37.3438L12.7803 37.4805L8.60449 22.8633L9.56543 22.5879L13.7422 37.2061Z" fill="#000000" />

<path d="M39.291 23.2324L35.2246 37.4629L34.7441 37.3262L34.2637 37.1885L38.3291 22.957L39.291 23.2324Z" fill="#000000" />

<path d="M22.9707 9.58008L10.2422 20.1875L9.92188 19.8037L9.60156 19.4189L22.3301 8.8125L22.9707 9.58008Z" fill="#000000" />

<path d="M38.3994 19.4189L38.0791 19.8037L37.7588 20.1875L25.0303 9.58008L25.6709 8.8125L38.3994 19.4189Z" fill="#000000" />

<path fill-rule="evenodd" clip-rule="evenodd" d="M13.9697 36.4414C15.2303 36.5694 16.2138 37.6344 16.2139 38.9287L16.2012 39.1836C16.0733 40.4444 15.0084 41.4287 13.7139 41.4287L13.459 41.415C12.2821 41.2956 11.3459 40.3605 11.2266 39.1836L11.2139 38.9287C11.2139 37.5482 12.3334 36.4289 13.7139 36.4287L13.9697 36.4414ZM13.7139 37.4287C12.8857 37.4289 12.2139 38.1005 12.2139 38.9287C12.214 39.7569 12.8857 40.4285 13.7139 40.4287C14.5422 40.4287 15.2137 39.757 15.2139 38.9287C15.2138 38.1003 14.5423 37.4287 13.7139 37.4287Z" fill="#000000" />

<path fill-rule="evenodd" clip-rule="evenodd" d="M34.541 36.4414C35.8016 36.5694 36.7851 37.6344 36.7852 38.9287L36.7725 39.1836C36.6446 40.4444 35.5797 41.4287 34.2852 41.4287L34.0303 41.415C32.8534 41.2956 31.9171 40.3605 31.7979 39.1836L31.7852 38.9287C31.7852 37.5482 32.9047 36.4289 34.2852 36.4287L34.541 36.4414ZM34.2852 37.4287C33.457 37.4289 32.7852 38.1005 32.7852 38.9287C32.7853 39.7569 33.457 40.4285 34.2852 40.4287C35.1135 40.4287 35.785 39.757 35.7852 38.9287C35.7851 38.1003 35.1135 37.4287 34.2852 37.4287Z" fill="#000000" />

<path fill-rule="evenodd" clip-rule="evenodd" d="M8.82715 18.4414C10.0876 18.5695 11.0712 19.6344 11.0713 20.9287L11.0586 21.1836C10.9308 22.4445 9.86586 23.4287 8.57129 23.4287L8.31543 23.415C7.1389 23.2953 6.20326 22.3603 6.08398 21.1836L6.07129 20.9287C6.07136 19.5481 7.19069 18.4288 8.57129 18.4287L8.82715 18.4414ZM8.57129 19.4287C7.74297 19.4288 7.07135 20.1004 7.07129 20.9287C7.07145 21.757 7.74303 22.4286 8.57129 22.4287C9.39962 22.4287 10.0711 21.757 10.0713 20.9287C10.0712 20.1003 9.39968 19.4287 8.57129 19.4287Z" fill="#000000" />

<path fill-rule="evenodd" clip-rule="evenodd" d="M39.6836 18.4414C40.9444 18.5692 41.9286 19.6342 41.9287 20.9287L41.916 21.1836C41.7882 22.4444 40.7232 23.4286 39.4287 23.4287L39.1729 23.415C37.9962 23.2954 37.0607 22.3603 36.9414 21.1836L36.9287 20.9287C36.9288 19.5481 38.0481 18.4288 39.4287 18.4287L39.6836 18.4414ZM39.4287 19.4287C38.6004 19.4288 37.9288 20.1004 37.9287 20.9287C37.9289 21.757 38.6004 22.4286 39.4287 22.4287C40.2569 22.4286 40.9286 21.7569 40.9287 20.9287C40.9286 20.1004 40.257 19.4288 39.4287 19.4287Z" fill="#000000" />

<path fill-rule="evenodd" clip-rule="evenodd" d="M24 5.57129C25.3807 5.57129 26.4999 6.69063 26.5 8.07129C26.5 9.452 25.3807 10.5713 24 10.5713C22.6194 10.5712 21.5 9.45195 21.5 8.07129C21.5001 6.69068 22.6194 5.57137 24 5.57129ZM24 6.57129C23.1717 6.57137 22.5001 7.24297 22.5 8.07129C22.5 8.89967 23.1716 9.57121 24 9.57129C24.8284 9.57129 25.5 8.89972 25.5 8.07129C25.4999 7.24292 24.8284 6.57129 24 6.57129Z" fill="#000000" />

<path d="M24.5 32.5791L25.9287 31.1504L26.6357 31.8574L24 34.4932L21.3643 31.8574L22.0713 31.1504L23.5 32.5791V28.1436H24.5V32.5791Z" fill="#000000" />

<path d="M18.5654 22.502L20.8496 24.7559L20.499 25.1123L18.5703 27.0664L18.2188 27.4219L17.5068 26.7197L18.9473 25.2607H14.5V24.2607H18.9238L17.5068 22.8623L18.21 22.1504L18.5654 22.502Z" fill="#000000" />

<path d="M30.0967 22.7734L28.8867 24.3115H33.5V25.3115H28.9043L30.0977 26.79L29.3193 27.418L29.0049 27.0293L27.2178 24.8154L27.4639 24.502L29.3105 22.1553L30.0967 22.7734Z" fill="#000000" />

<path d="M26.6357 17.7148L25.9287 18.4219L24.5 16.9932V21.4287H23.5V16.9932L22.0713 18.4219L21.3643 17.7148L24 15.0791L26.6357 17.7148Z" fill="#000000" />

  </g>
  <rect x="880" y="552" width="256" height="64" fill="#FFFFFF" stroke="#000000" stroke-width="1" stroke-miterlimit="10" />
  <text font-family="Ubuntu Sans">
    <tspan x="888" y="576.92" font-size="18" font-weight="600" fill="#000000">Hyper-converged</tspan>
    <tspan x="888" y="600.92" font-size="18" font-weight="600" fill="#000000">node</tspan>
  </text>
  <g transform="translate(1080 560)">
<path fill-rule="evenodd" clip-rule="evenodd" d="M26.7305 3.5C31.568 3.5 35.4717 7.36707 35.4717 12.1484C35.4717 12.1941 35.4691 12.2397 35.4678 12.2852C39.7261 12.8599 43 16.4421 43 20.8516C43 25.6329 39.0963 29.5 34.2588 29.5H30.5V35.5H34.5V36.5H30C29.7239 36.5 29.5 36.2761 29.5 36V29.5H24.5V37.5H23.5V29.5H18.5V36C18.5 36.2761 18.2761 36.5 18 36.5H13.5V35.5H17.5V29.5H13.7412C8.90372 29.5 5 25.6329 5 20.8516C5.00004 17.1297 7.34858 13.8325 10.8848 12.6787V12.2012C10.8848 8.99238 13.5261 6.4541 16.71 6.4541C17.7332 6.45412 18.7206 6.72367 19.5977 7.23145C21.2121 4.93568 23.8728 3.50001 26.7305 3.5ZM26.7305 4.5C23.8674 4.50001 21.2161 6.13513 19.8906 8.66699C19.0456 7.92533 18.0144 7.5082 16.9277 7.45898L16.71 7.4541C14.059 7.4541 11.8848 9.56381 11.8848 12.2012V13.4385C8.38571 14.2298 6.00004 17.3176 6 20.8516C6 24.9395 9.23425 28.2852 13.3408 28.4902L13.7412 28.5H34.2588C38.5533 28.5 42 25.0713 42 20.8516C42 16.6318 38.6067 13.2559 34.3652 13.2031C34.367 13.1936 34.4467 12.7718 34.4668 12.3369L34.4717 12.1484C34.4717 7.92866 31.025 4.5 26.7305 4.5Z" fill="#000000" />

<path fill-rule="evenodd" clip-rule="evenodd" d="M24 39.5C25.3807 39.5 26.5 40.6193 26.5 42C26.5 43.3807 25.3807 44.5 24 44.5C22.6193 44.5 21.5 43.3807 21.5 42C21.5 40.6193 22.6193 39.5 24 39.5ZM24 40.5C23.1716 40.5 22.5 41.1716 22.5 42C22.5 42.8284 23.1716 43.5 24 43.5C24.8284 43.5 25.5 42.8284 25.5 42C25.5 41.1716 24.8284 40.5 24 40.5Z" fill="#000000" />

<path fill-rule="evenodd" clip-rule="evenodd" d="M9 33.5C10.3807 33.5 11.5 34.6193 11.5 36C11.5 37.3807 10.3807 38.5 9 38.5C7.61929 38.5 6.5 37.3807 6.5 36C6.5 34.6193 7.61929 33.5 9 33.5ZM9 34.5C8.17157 34.5 7.5 35.1716 7.5 36C7.5 36.8284 8.17157 37.5 9 37.5C9.82843 37.5 10.5 36.8284 10.5 36C10.5 35.1716 9.82843 34.5 9 34.5Z" fill="#000000" />

<path fill-rule="evenodd" clip-rule="evenodd" d="M39 33.5C40.3807 33.5 41.5 34.6193 41.5 36C41.5 37.3807 40.3807 38.5 39 38.5C37.6193 38.5 36.5 37.3807 36.5 36C36.5 34.6193 37.6193 33.5 39 33.5ZM39 34.5C38.1716 34.5 37.5 35.1716 37.5 36C37.5 36.8284 38.1716 37.5 39 37.5C39.8284 37.5 40.5 36.8284 40.5 36C40.5 35.1716 39.8284 34.5 39 34.5Z" fill="#000000" />

  </g>
  <text font-family="Ubuntu Sans">
    <tspan x="32" y="664.92" font-size="18" font-weight="400" fill="#666666">BMC — dedicated BMC port on every node</tspan>
    <tspan x="32" y="688.92" font-size="18" font-weight="400" fill="#666666">OAM / provisioning — native VLAN for PXE boot</tspan>
    <tspan x="32" y="712.92" font-size="18" font-weight="400" fill="#666666">Internal API — used for Vault on the infrastructure node</tspan>
    <tspan x="32" y="736.92" font-size="18" font-weight="400" fill="#666666">Public API — can be routed (infrastructure node)</tspan>
    <tspan x="32" y="760.92" font-size="18" font-weight="400" fill="#666666">Provider network — can be routed and facilitates validation tests (infrastructure node)</tspan>
  </text>
</svg>
