<?xml version="1.0" encoding="UTF-8"?>
<svg xmlns="http://www.w3.org/2000/svg" width="2206" height="858" viewBox="0 0 2206 858" xml:space="preserve"><rect width="2206" height="858" fill="#FFFFFF"/><g data-component-id="page"><rect x="0" y="0" width="2206" height="858" fill="transparent" stroke="none" stroke-width="0" stroke-miterlimit="10"/><g data-component-id="tls_provider"><rect x="672" y="0" width="1534" height="309" fill="#F3F3F3" stroke="#F3F3F3" stroke-width="1" stroke-miterlimit="10"/><g data-component-id="tls_provider__heading"><rect x="680" y="8" width="1518" height="48" fill="transparent" stroke="none" stroke-width="0" stroke-miterlimit="10"/><text font-family="Ubuntu Sans" data-dg-text-role="heading" data-dg-text-block-index="0"><tspan x="680" y="24.92" font-size="18" font-weight="700" fill="#000000">TLS Certificate Provider</tspan></text></g><g data-component-id="tls_provider__body"><rect x="680" y="72" width="1518" height="229" fill="transparent" stroke="none" stroke-width="0" stroke-miterlimit="10"/><g data-component-id="provider_stack"><rect x="680" y="72" width="338" height="224" fill="transparent" stroke="none" stroke-width="0" stroke-miterlimit="10"/><g data-component-id="vault_charm"><rect x="768" y="88" width="176" height="64" fill="transparent" stroke="#000000" stroke-width="1" stroke-miterlimit="10"/><text font-family="Ubuntu Sans" data-dg-text-role="label" data-dg-text-block-index="0"><tspan x="776" y="112.92" font-size="18" font-weight="400" fill="#000000">vault</tspan><tspan x="776" y="136.92" font-size="18" font-weight="400" fill="#000000">charm</tspan></text></g><g data-component-id="manual_tls_certificates"><rect x="704" y="224" width="304" height="64" fill="transparent" stroke="#000000" stroke-width="1" stroke-miterlimit="10"/><text font-family="Ubuntu Sans" data-dg-text-role="label" data-dg-text-block-index="0"><tspan x="712" y="248.92" font-size="18" font-weight="400" fill="#000000">manual-tls-certificates</tspan><tspan x="712" y="272.92" font-size="18" font-weight="400" fill="#000000">charm</tspan></text></g></g></g></g><g data-component-id="services_row"><rect x="0" y="384" width="1592" height="474" fill="transparent" stroke="none" stroke-width="0" stroke-miterlimit="10"/><g data-component-id="openstack_services"><rect x="16" y="400" width="763" height="232" fill="#F3F3F3" stroke="#F3F3F3" stroke-width="1" stroke-miterlimit="10"/><g data-component-id="openstack_services__heading"><rect x="24" y="408" width="747" height="48" fill="transparent" stroke="none" stroke-width="0" stroke-miterlimit="10"/><text font-family="Ubuntu Sans" data-dg-text-role="heading" data-dg-text-block-index="0"><tspan x="24" y="424.92" font-size="18" font-weight="700" fill="#000000">OpenStack Services</tspan></text></g><g data-component-id="openstack_services__body"><rect x="24" y="472" width="747" height="152" fill="transparent" stroke="none" stroke-width="0" stroke-miterlimit="10"/><g data-component-id="openstack_relation_row"><rect x="24" y="472" width="680" height="64" fill="transparent" stroke="none" stroke-width="0" stroke-miterlimit="10"/><g data-component-id="octavia_certificates"><rect x="24" y="472" width="176" height="64" fill="transparent" stroke="none" stroke-width="0" stroke-miterlimit="10"/><text font-family="Ubuntu Sans" data-dg-text-role="label" data-dg-text-block-index="0"><tspan x="24" y="496.92" font-size="18" font-weight="400" fill="#666666">certificates</tspan><tspan x="24" y="520.92" font-size="18" font-weight="400" fill="#666666"></tspan></text></g><g data-component-id="amphora_issuing_ca"><rect x="216" y="472" width="224" height="64" fill="transparent" stroke="none" stroke-width="0" stroke-miterlimit="10"/><text font-family="Ubuntu Sans" data-dg-text-role="label" data-dg-text-block-index="0"><tspan x="216" y="496.92" font-size="18" font-weight="400" fill="#666666">amphora-issuing-ca</tspan><tspan x="216" y="520.92" font-size="18" font-weight="400" fill="#666666"></tspan></text></g><g data-component-id="amphora_controller_cert"><rect x="456" y="472" width="248" height="64" fill="transparent" stroke="none" stroke-width="0" stroke-miterlimit="10"/><text font-family="Ubuntu Sans" data-dg-text-role="label" data-dg-text-block-index="0"><tspan x="456" y="496.92" font-size="18" font-weight="400" fill="#666666">amphora-controller-cert</tspan><tspan x="456" y="520.92" font-size="18" font-weight="400" fill="#666666"></tspan></text></g></g><g data-component-id="octavia_k8s"><rect x="288" y="560" width="304" height="64" fill="transparent" stroke="#000000" stroke-width="1" stroke-miterlimit="10"/><text font-family="Ubuntu Sans" data-dg-text-role="label" data-dg-text-block-index="0"><tspan x="296" y="584.92" font-size="18" font-weight="400" fill="#000000">octavia-k8s</tspan><tspan x="296" y="608.92" font-size="18" font-weight="400" fill="#000000">Load Balancer Service</tspan></text></g></g></g><g data-component-id="load_balancers"><rect x="792" y="400" width="785" height="448" fill="#F3F3F3" stroke="#F3F3F3" stroke-width="1" stroke-miterlimit="10"/><g data-component-id="load_balancers__heading"><rect x="800" y="408" width="769" height="48" fill="transparent" stroke="none" stroke-width="0" stroke-miterlimit="10"/><text font-family="Ubuntu Sans" data-dg-text-role="heading" data-dg-text-block-index="0"><tspan x="800" y="424.92" font-size="18" font-weight="700" fill="#000000">LoadBalancers</tspan></text></g><g data-component-id="load_balancers__body"><rect x="800" y="472" width="769" height="368" fill="transparent" stroke="none" stroke-width="0" stroke-miterlimit="10"/><g data-component-id="load_balancer_relation_row"><rect x="832" y="472" width="734" height="64" fill="transparent" stroke="none" stroke-width="0" stroke-miterlimit="10"/><g data-component-id="public_certificates"><rect x="832" y="472" width="184" height="64" fill="transparent" stroke="none" stroke-width="0" stroke-miterlimit="10"/><text font-family="Ubuntu Sans" data-dg-text-role="label" data-dg-text-block-index="0"><tspan x="832" y="496.92" font-size="18" font-weight="400" fill="#666666">certificates</tspan><tspan x="832" y="520.92" font-size="18" font-weight="400" fill="#666666"></tspan></text></g><g data-component-id="internal_certificates"><rect x="1107" y="472" width="184" height="64" fill="transparent" stroke="none" stroke-width="0" stroke-miterlimit="10"/><text font-family="Ubuntu Sans" data-dg-text-role="label" data-dg-text-block-index="0"><tspan x="1107" y="496.92" font-size="18" font-weight="400" fill="#666666">certificates</tspan><tspan x="1107" y="520.92" font-size="18" font-weight="400" fill="#666666"></tspan></text></g><g data-component-id="rgw_certificates"><rect x="1382" y="472" width="184" height="64" fill="transparent" stroke="none" stroke-width="0" stroke-miterlimit="10"/><text font-family="Ubuntu Sans" data-dg-text-role="label" data-dg-text-block-index="0"><tspan x="1382" y="496.92" font-size="18" font-weight="400" fill="#666666">certificates</tspan><tspan x="1382" y="520.92" font-size="18" font-weight="400" fill="#666666"></tspan></text></g></g><g data-component-id="load_balancer_endpoint_row"><rect x="888" y="584" width="344" height="256" fill="transparent" stroke="none" stroke-width="0" stroke-miterlimit="10"/><g data-component-id="traefik_public"><rect x="904" y="600" width="240" height="64" fill="transparent" stroke="#000000" stroke-width="1" stroke-miterlimit="10"/><text font-family="Ubuntu Sans" data-dg-text-role="label" data-dg-text-block-index="0"><tspan x="912" y="624.92" font-size="18" font-weight="400" fill="#000000">traefik-public</tspan><tspan x="912" y="648.92" font-size="18" font-weight="400" fill="#000000">Public Endpoint</tspan></text></g><g data-component-id="traefik_internal"><rect x="944" y="680" width="240" height="64" fill="transparent" stroke="#000000" stroke-width="1" stroke-miterlimit="10"/><text font-family="Ubuntu Sans" data-dg-text-role="label" data-dg-text-block-index="0"><tspan x="952" y="704.92" font-size="18" font-weight="400" fill="#000000">traefik</tspan><tspan x="952" y="728.92" font-size="18" font-weight="400" fill="#000000">Internal Endpoint</tspan></text></g><g data-component-id="traefik_rgw"><rect x="984" y="768" width="240" height="64" fill="transparent" stroke="#000000" stroke-width="1" stroke-miterlimit="10"/><text font-family="Ubuntu Sans" data-dg-text-role="label" data-dg-text-block-index="0"><tspan x="992" y="792.92" font-size="18" font-weight="400" fill="#000000">traefik-rgw</tspan><tspan x="992" y="816.92" font-size="18" font-weight="400" fill="#000000">Ceph RGW Endpoint</tspan></text></g></g></g></g></g></g><g data-dg-arrow="true" data-component-id="vault_charm-&gt;manual_tls_certificates"><line x1="856" y1="152" x2="856" y2="213.16" fill="none" stroke="#E95420" stroke-width="1" stroke-miterlimit="10"/><polygon points="853.09,213.16 856,224 858.91,213.16" fill="#E95420"/><text font-family="Ubuntu Sans" text-anchor="middle" dominant-baseline="middle"><tspan x="832" y="199.5" font-size="18" font-weight="400" fill="#666666">tls-certificates-pki</tspan></text></g><g data-dg-arrow="true" data-component-id="manual_tls_certificates-&gt;octavia_k8s"><line x1="760" y1="280" x2="760" y2="296" fill="none" stroke="#E95420" stroke-width="1" stroke-miterlimit="10"/><line x1="760" y1="296" x2="760" y2="312" fill="none" stroke="#E95420" stroke-width="1" stroke-miterlimit="10"/><line x1="760" y1="312" x2="760" y2="376" fill="none" stroke="#E95420" stroke-width="1" stroke-miterlimit="10"/><line x1="760" y1="376" x2="760" y2="392" fill="none" stroke="#E95420" stroke-width="1" stroke-miterlimit="10"/><line x1="760" y1="392" x2="760" y2="544" fill="none" stroke="#E95420" stroke-width="1" stroke-miterlimit="10"/><line x1="760" y1="544" x2="488" y2="544" fill="none" stroke="#E95420" stroke-width="1" stroke-miterlimit="10"/><line x1="488" y1="544" x2="488" y2="549.16" fill="none" stroke="#E95420" stroke-width="1" stroke-miterlimit="10"/><polygon points="485.09,549.16 488,560 490.91,549.16" fill="#E95420"/></g><g data-dg-arrow="true" data-component-id="manual_tls_certificates-&gt;traefik_public"><line x1="824" y1="280" x2="824" y2="296" fill="none" stroke="#E95420" stroke-width="1" stroke-miterlimit="10"/><line x1="824" y1="296" x2="824" y2="312" fill="none" stroke="#E95420" stroke-width="1" stroke-miterlimit="10"/><line x1="824" y1="312" x2="824" y2="320" fill="none" stroke="#E95420" stroke-width="1" stroke-miterlimit="10"/><line x1="824" y1="320" x2="800" y2="320" fill="none" stroke="#E95420" stroke-width="1" stroke-miterlimit="10"/><line x1="800" y1="320" x2="800" y2="376" fill="none" stroke="#E95420" stroke-width="1" stroke-miterlimit="10"/><line x1="800" y1="376" x2="800" y2="392" fill="none" stroke="#E95420" stroke-width="1" stroke-miterlimit="10"/><line x1="800" y1="392" x2="800" y2="568" fill="none" stroke="#E95420" stroke-width="1" stroke-miterlimit="10"/><line x1="800" y1="568" x2="1016" y2="568" fill="none" stroke="#E95420" stroke-width="1" stroke-miterlimit="10"/><line x1="1016" y1="568" x2="1016" y2="576" fill="none" stroke="#E95420" stroke-width="1" stroke-miterlimit="10"/><line x1="1016" y1="576" x2="1016" y2="581.16" fill="none" stroke="#E95420" stroke-width="1" stroke-miterlimit="10"/><polygon points="1013.09,581.16 1016,592 1018.91,581.16" fill="#E95420"/></g><g data-dg-arrow="true" data-component-id="manual_tls_certificates-&gt;traefik_internal"><line x1="880" y1="280" x2="880" y2="296" fill="none" stroke="#E95420" stroke-width="1" stroke-miterlimit="10"/><line x1="880" y1="296" x2="880" y2="312" fill="none" stroke="#E95420" stroke-width="1" stroke-miterlimit="10"/><line x1="880" y1="312" x2="880" y2="344" fill="none" stroke="#E95420" stroke-width="1" stroke-miterlimit="10"/><line x1="880" y1="344" x2="808" y2="344" fill="none" stroke="#E95420" stroke-width="1" stroke-miterlimit="10"/><line x1="808" y1="344" x2="808" y2="376" fill="none" stroke="#E95420" stroke-width="1" stroke-miterlimit="10"/><line x1="808" y1="376" x2="808" y2="392" fill="none" stroke="#E95420" stroke-width="1" stroke-miterlimit="10"/><line x1="808" y1="392" x2="808" y2="560" fill="none" stroke="#E95420" stroke-width="1" stroke-miterlimit="10"/><line x1="808" y1="560" x2="1152" y2="560" fill="none" stroke="#E95420" stroke-width="1" stroke-miterlimit="10"/><line x1="1152" y1="560" x2="1152" y2="576" fill="none" stroke="#E95420" stroke-width="1" stroke-miterlimit="10"/><line x1="1152" y1="576" x2="1152" y2="664" fill="none" stroke="#E95420" stroke-width="1" stroke-miterlimit="10"/><line x1="1152" y1="664" x2="1096" y2="664" fill="none" stroke="#E95420" stroke-width="1" stroke-miterlimit="10"/><line x1="1096" y1="664" x2="1096" y2="669.16" fill="none" stroke="#E95420" stroke-width="1" stroke-miterlimit="10"/><polygon points="1093.09,669.16 1096,680 1098.91,669.16" fill="#E95420"/></g><g data-dg-arrow="true" data-component-id="manual_tls_certificates-&gt;traefik_rgw"><line x1="944" y1="280" x2="944" y2="296" fill="none" stroke="#E95420" stroke-width="1" stroke-miterlimit="10"/><line x1="944" y1="296" x2="944" y2="312" fill="none" stroke="#E95420" stroke-width="1" stroke-miterlimit="10"/><line x1="944" y1="312" x2="944" y2="368" fill="none" stroke="#E95420" stroke-width="1" stroke-miterlimit="10"/><line x1="944" y1="368" x2="824" y2="368" fill="none" stroke="#E95420" stroke-width="1" stroke-miterlimit="10"/><line x1="824" y1="368" x2="824" y2="376" fill="none" stroke="#E95420" stroke-width="1" stroke-miterlimit="10"/><line x1="824" y1="376" x2="824" y2="392" fill="none" stroke="#E95420" stroke-width="1" stroke-miterlimit="10"/><line x1="824" y1="392" x2="824" y2="544" fill="none" stroke="#E95420" stroke-width="1" stroke-miterlimit="10"/><line x1="824" y1="544" x2="1192" y2="544" fill="none" stroke="#E95420" stroke-width="1" stroke-miterlimit="10"/><line x1="1192" y1="544" x2="1192" y2="576" fill="none" stroke="#E95420" stroke-width="1" stroke-miterlimit="10"/><line x1="1192" y1="576" x2="1192" y2="752" fill="none" stroke="#E95420" stroke-width="1" stroke-miterlimit="10"/><line x1="1192" y1="752" x2="1136" y2="752" fill="none" stroke="#E95420" stroke-width="1" stroke-miterlimit="10"/><line x1="1136" y1="752" x2="1136" y2="752" fill="none" stroke="#E95420" stroke-width="1" stroke-miterlimit="10"/><polygon points="1133.86,752 1136,760 1138.14,752" fill="#E95420"/></g></svg>
