<svg xmlns="http://www.w3.org/2000/svg" width="760" height="560" viewBox="0 0 760 560" xml:space="preserve">
  <rect width="760" height="560" fill="#ffffff" />
  <g fill="none" stroke="#000000" stroke-width="2" stroke-linecap="round" stroke-linejoin="round">
    <rect x="36" y="48" width="208" height="72" />
    <rect x="268" y="48" width="208" height="72" />
    <rect x="500" y="48" width="208" height="72" />
    <rect x="160" y="164" width="424" height="56" />
    <rect x="160" y="252" width="424" height="56" />
    <rect x="160" y="340" width="424" height="56" />
    <rect x="160" y="428" width="424" height="56" />
    <line x1="372" y1="120" x2="372" y2="164" />
    <line x1="372" y1="220" x2="372" y2="252" />
    <line x1="372" y1="308" x2="372" y2="340" />
    <line x1="372" y1="396" x2="372" y2="428" />
  </g>
  <g font-family="Segoe UI, Arial, sans-serif" font-size="20" fill="#000000">
    <text x="40" y="32">new workflow sketch</text>
    <text x="64" y="90">rough source</text>
    <text x="292" y="90">local refs</text>
    <text x="524" y="82">DIAGRAM.md</text>
    <text x="524" y="104">new spec</text>
    <text x="292" y="198">diagram redraw skill</text>
    <text x="260" y="286">repo generators + shared tokens</text>
    <text x="282" y="374">build + validate skill</text>
    <text x="238" y="462">compare / review / draw.io review / outputs</text>
  </g>
  <g font-family="Segoe UI, Arial, sans-serif" font-size="16" fill="#666666">
    <text x="40" y="528">goal: put the spec in front, make the skills explicit, then ingest typography / spacing / grid later</text>
  </g>
</svg>